<svg version="1.1" id="Layer_1"
	xmlns="http://www.w3.org/2000/svg"
	xmlns:xlink="http://www.w3.org/1999/xlink" x="0px" y="0px" viewBox="0 0 300 67" style="enable-background:new 0 0 300 67;" xml:space="preserve">
	<g>
		<g>
			<path d="M169.3,15c-0.3-0.4-0.7-0.7-1.1-1c-4-2.5-7.6-3.1-11-3.7c-0.7-0.1-1.5-0.3-2.3-0.5c-0.5-0.4-1.6-1.1-3.1-2.5
			c-0.6-0.5-1.1-1-1.5-1.4c-0.3-1.9-2-4.2-8-5.5c-9-1.9-18.2,1-24,4.4C112.4,8.4,107,16.9,107,16.9l4.8,1.1c0,0-3.9,3.9-5.6,7.2
			c-2.7,5.3-3.4,8.7-3.4,8.7l3.8-0.2c0,0-0.9,4.4-3.5,8.5c-2.6,4-10,8-10,8s5.4,1.2,9.4,1.4c4.7,0.3,8.8-0.8,8.8-0.8
			s-0.8,1.3-1.5,1.9c-0.7,0.6-1.9,1.5-1.9,1.5s4.8,1.6,8.4,0.8c3.6-0.8,6.1-3,6.1-3s7.8,8.9,14.1,10.4c4.3,1,8.6-0.6,8.6-0.6
			s-6.4-2.4-7.9-3.6c-1.5-1.2-1.9-2.4-1.9-2.4s4.5,1.6,7.2,2c6,0.9,11.6,0.7,11.6,0.7s-19.1-10.2-13-25.1c2.4-5.9,6.4-7.5,10.6-9
			c2.1-0.7,8.6-0.6,12.1,0.4c3.5,1,4.9,1.3,7.4,3.8C174,31.5,174.5,19.6,169.3,15z M168.9,22.7c-1.1-1.1-3.2-1.5-4.8-1.8
			c-2.2-0.5-7.4-0.6-9.4-0.5c-7.3,0.3-13.8,3.8-16.8,10.4c-5.7,13,4.6,23.6,4.6,23.6s-5.3-0.9-9.7-4.6c-2.3-1.9-4-4.8-4-4.8
			s-0.3,2.1-0.1,3.6c0.2,1.6,0.5,3.1,0.5,3.1s-2.5-2.3-3.8-4.5c-1.1-2-1.5-4.6-1.5-4.6s-1.5,3.7-3.4,5.8c-2.4,2.6-6.6,3.7-6.6,3.7
			s1.7-2.3,2.6-4.2c1.3-2.6,1.5-4.9,1.5-4.9s-2.5,1.4-7,3.6c-5,2.6-12.5,2.7-12.5,2.7s3.8-2.3,7.3-6.6c3.5-4.3,6.4-12.7,6.4-12.7
			l-3.7,0.1c0,0,2.5-5.1,5.1-8.3c3-3.7,6.9-6.9,6.9-6.9s-0.6-0.5-1.9-0.9c-1.3-0.4-3.5-0.7-3.5-0.7s7.4-10.4,23.8-9.5
			c2.4,0.1,5.5,1,7.1,1.9c0.8,0.5,2.2,2.5,2.2,2.5c0,0,0,0,0,0s0.2,0.3,0.7,0.7l0,0l0,0c1.2,1.3,4,3.8,7.1,4.6
			c4.4,1.2,9.1,2.5,11.3,4.3c2.2,1.8,2.9,4.4,3.1,5.3C170.6,23.7,170.1,23.9,168.9,22.7z"/>
			<path d="M154.1,58.6c0.1,0,0.2,0,0.2,0l144,0c0.9,0,1.7-0.7,1.7-1.7c0-0.9-0.7-1.7-1.7-1.7h-144c-0.2,0-9.3,0.1-12.3-7.2
			c-0.3-0.8-1.3-1.2-2.2-0.9c-0.8,0.3-0.9,1.3-0.5,2.2c1,2.5,2.2,4.3,3.8,5.7C147.5,58.4,152.9,58.6,154.1,58.6z"/>
			<path d="M158.4,66.5c0.5,0,0.8,0,0.9,0l129.8,0c1.1,0,2.1-0.9,2.1-2.1c0-1.1-0.9-2.1-2.1-2.1H159.3c-5.4,0.1-20.2-0.7-24.9-5.9
			c-0.8-0.8-2.1-0.9-2.9-0.2c-0.8,0.8-0.9,2.1-0.2,2.9C137.5,66,154.3,66.5,158.4,66.5z"/>
		</g>
		<path style="fill:#BD2133;" d="M128.9,32.3c0,0-1.6,4-1.3,6.1c0.3,2.1,2.5,5.5,2.5,5.5s-0.7-2.8-0.9-4.4
		C128.9,37.9,128.9,32.3,128.9,32.3z"/>
		<path d="M183.6,27c2.3,0,4.3-0.6,5.8-1.8c0.1-0.1,0.2-0.2,0.3-0.3c0.1,0.3,0.3,0.5,0.5,0.7c0.7,0.7,1.5,1.1,2.5,1.1
		c0.3,0,0.6,0,0.9,0c0.3,0,0.6-0.1,0.9-0.1c0.3,0,0.5-0.1,0.8-0.1c0.3,0,0.7,0,1,0c2.8,0,5,0,6.5,0.1c0.5,0,1,0.1,1.4,0.1
		c0.4,0,0.8,0,1.1,0c0.8,0,1.5-0.2,2.1-0.6c0.6,0.4,1.2,0.6,2,0.6c0.2,0,0.5,0,1.7-0.2c0.2,0,0.6-0.1,1.3-0.1c0.6,0,1,0,1.2,0.1
		c1.1,0.2,1.5,0.2,1.7,0.2c0.8,0,1.6-0.3,2.2-0.8c0.6,0.5,1.3,0.8,2.2,0.8c0.2,0,0.6,0,1.8-0.2c0,0,0.2,0,0.9,0c0.5,0,0.9,0,1.2,0
		l0.1,0c0.1,0,0.3,0,0.7,0.1c0.5,0.1,0.8,0.1,1.1,0.1c0.7,0,1.3-0.2,1.8-0.5c0.5,0.3,1.2,0.5,1.8,0.5c0.2,0,0.7,0,2-0.2
		c1.1-0.1,2.3-0.2,3.1-0.1l1.4,0.2c0.2,0,0.3,0.1,0.5,0.1c0.8,0,1.5-0.3,2.1-0.7c0.6,0.5,1.3,0.7,2.1,0.7l1.7-0.2
		c0.3,0,0.7-0.1,1.1-0.1c0.4,0,0.7,0,0.9,0l0.9,0.1c0.4,0.1,0.8,0.1,1.1,0.1c0.9,0,1.7-0.3,2.3-0.9c0.7,0.6,1.4,0.6,1.8,0.6h0.8h0.1
		h0.6c0.4,0,1.2-0.1,2-0.8c0.6,0.7,1.5,1,2.4,1c0.4,0,0.9,0,1.6-0.1c0.7-0.1,1-0.1,1.1-0.1c0.4,0,0.8,0,1.2,0.1
		c0.8,0.1,1.4,0.2,1.8,0.2c0.9,0,1.6-0.3,2.3-0.8c0.6,0.6,1.4,0.9,2.4,0.9c0.8,0,1.5-0.2,2-0.6c1.1,0.5,2.3,0.8,3.5,0.8
		c2.2,0,4-0.7,5.4-2c1.5-1.4,2.2-3.2,2.2-5.3c0-1.6-0.5-2.9-1.4-4c0.6-0.6,0.9-1.4,0.9-2.4c0-0.2,0-0.5-0.1-0.8c0-0.2,0-0.3,0-0.4
		c0-0.2,0-0.5,0.1-0.9c0.1-0.5,0.1-1,0.1-1.2c0-1.9-1.3-3.1-3.3-3.1c-0.8,0-1.4,0.2-1.9,0.5c-1-0.5-2.1-0.8-3.3-0.8
		c-2,0-3.7,0.6-5,1.9c-0.2,0.2-0.4,0.4-0.5,0.5c-0.2-0.5-0.5-0.8-0.7-1.1c-0.7-0.6-1.5-1-2.5-1c-0.2,0-0.6,0-1.1,0.1
		c-1.3,0.1-2,0.2-2.4,0.2l-2.4-0.2c-0.5,0-0.8-0.1-1.1-0.1c-0.9,0-1.8,0.4-2.3,1.1c-0.4,0.5-0.7,1.2-0.9,2.2l-0.3,1L251,9.8l0,0
		c-0.2-0.9-0.5-1.5-0.8-1.9c-0.4-0.4-1-0.9-2.2-0.9c-0.4,0-0.8,0-1.4,0.1L244,7.1c-0.3,0-0.8,0-1.4-0.1c-1-0.1-1.6-0.1-2.1-0.1
		c-0.9,0-1.6,0.2-2.2,0.6c-0.6-0.4-1.3-0.6-2.2-0.6c-0.2,0-0.6,0-1.8,0.1c-1,0.1-1.5,0.1-1.8,0.1c-0.5,0-1,0-1.5-0.1
		c-1.3-0.1-1.7-0.2-1.9-0.2c-1.3,0-2.1,0.5-2.5,1c-0.5,0.5-1,1.3-1,2.6c0,0.9,0.3,1.6,0.8,2.3c0.6,0.7,1.4,1.1,2.3,1.1v5.9
		c-0.5,0-0.9,0.1-1.4,0.3c-0.4-0.2-0.9-0.3-1.4-0.3l-3-10c-0.4-1.3-1-2.1-1.8-2.5c-0.4-0.2-1-0.4-2.6-0.4l-1.4,0
		c-1.2,0-2,0.2-2.6,0.5c-0.9,0.5-1.6,1.4-2.1,3l-3.3,9.4c0,0,0,0.1,0,0.1c-0.1,0-0.2,0-0.2,0c-0.1,0-0.2,0-0.2,0c0,0,0,0,0,0
		c0-0.3,0-0.5,0-0.7c0-2.2-1.5-3.7-3.7-3.7c-1,0-1.9,0.3-2.6,1c-0.8,0.7-1.2,1.6-1.2,2.6c0,0.3,0,0.6,0.1,1.1c0,0,0,0,0,0h-1.1
		c0,0,0-0.1,0-0.1v-6.1c0.2,0,0.3,0,0.5,0c0.9,0,1.7-0.4,2.3-1.1c0.5-0.6,0.7-1.4,0.7-2.3c0-1.3-0.5-2.1-1-2.5c-0.5-0.5-1.3-1-2.5-1
		c-0.4,0-1,0-1.9,0.2c-0.2,0-0.4,0-0.7,0.1c-0.5,0-1,0-1.6,0c-0.3,0-0.7,0-1-0.1c-1.6-0.1-2-0.1-2.2-0.1c-0.9,0-1.6,0.2-2.2,0.7
		c-0.6-0.6-1.4-0.9-2.3-0.9c-0.8,0-1.6,0.2-2.1,0.7c-1-0.5-2.1-0.8-3.3-0.8c-2.7,0-4.8,1-6.4,3c-1.5,1.8-2.2,4.3-2.2,7.4
		c0,3,0.8,5.5,2.5,7.3C178.5,26.1,180.8,27,183.6,27z M262.3,13.8c0.5,0,0.9-0.1,1.3-0.3c0,1.3,0.4,2.4,1.1,3.4
		c-0.1,0.1-0.2,0.1-0.3,0.2c-0.8,0.6-1.2,1.5-1.2,2.4c0,0.1,0,0.2,0,0.3c-0.3-0.1-0.6-0.2-0.9-0.2V13.8z M236.6,13.8
		c0.6,0,1.2-0.2,1.7-0.6c0.5,0.4,1.1,0.6,1.7,0.6v5.9c-0.6,0-1.2,0.2-1.7,0.6c-0.5-0.4-1.1-0.6-1.7-0.6V13.8z M192.3,19.7
		c-0.2,0-0.3,0-0.5,0.1c0-1.1-0.4-2-1-2.8c-0.1-0.1-0.3-0.3-0.4-0.4c0.1-0.1,0.2-0.2,0.3-0.3l0.1-0.2c0.4-0.6,0.7-1.3,0.7-2.1
		c0-0.1,0-0.3,0-0.4c0.2,0.1,0.5,0.1,0.8,0.1V19.7z M183.7,13.5c0.2,0,0.4,0,0.5,0.1l0,0.6c0,1.2,0.4,1.9,0.8,2.4
		c0.1,0.1,0.1,0.1,0.2,0.2c-0.7,0.6-1,1.5-1,2.5l0,0.7c-0.1,0.1-0.3,0.1-0.6,0.1c-0.7,0-0.9-0.2-1-0.4c-0.1-0.2-0.5-1-0.5-2.9
		C182.3,13.5,183.4,13.5,183.7,13.5z"/>
		<g>
			<path d="M158.6,34.4c0.2,0,0.4,0,0.7,0.1c0.3,0.1,0.6,0.1,0.7,0.1c0.5,0,0.9-0.2,1.2-0.7c0.3-0.4,0.5-1,0.5-1.6
			c0-1.7-0.8-2.5-2.3-2.5c-0.4,0-1.1,0.1-2.2,0.2c-1.1,0.1-1.9,0.2-2.5,0.2c-0.7,0-1.5,0-2.2-0.1c-1.1-0.1-1.9-0.2-2.2-0.2
			c-0.7,0-1.2,0.2-1.6,0.7c-0.4,0.5-0.6,1.1-0.6,1.9c0,0.6,0.2,1.2,0.5,1.6c0.3,0.4,0.7,0.7,1.2,0.7c0.2,0,0.4,0,0.8-0.1
			c0.3-0.1,0.6-0.1,0.7-0.1c0.4,0,0.7,0.3,0.8,0.9c0,0.2,0.1,0.7,0.1,1.4v9.6c0,0.7,0,1.2-0.1,1.5c-0.1,0.6-0.4,0.9-0.8,0.9
			c-0.2,0-0.4,0-0.7-0.1c-0.3-0.1-0.6-0.1-0.7-0.1c-0.5,0-0.9,0.2-1.2,0.6c-0.3,0.4-0.5,1-0.5,1.7c0,0.8,0.2,1.4,0.6,1.8
			c0.4,0.5,1,0.7,1.6,0.7c0.4,0,1.2-0.1,2.4-0.2c1-0.1,2-0.2,2.9-0.2c0.6,0,1.2,0,1.7,0.1l2,0.3c0.1,0,0.2,0,0.3,0
			c0.6,0,1.1-0.2,1.5-0.7c0.4-0.5,0.6-1.1,0.6-1.8c0-0.6-0.2-1.2-0.5-1.6c-0.3-0.4-0.7-0.7-1.2-0.7c-0.2,0-0.4,0-0.7,0.1
			c-0.3,0.1-0.6,0.1-0.7,0.1c-0.6,0-0.8-0.8-0.8-2.4v-9.6C157.8,35.2,158.1,34.4,158.6,34.4z"/>
			<path d="M177.6,51.1c0.3,0.8,0.5,1.3,0.7,1.5c0.3,0.3,0.7,0.5,1.3,0.5h0.7c1,0,1.5-0.1,1.5-0.1c0.2,0,0.5,0,1,0.1
			c0.4,0,0.7,0.1,1,0.1c1.1,0,1.7-0.8,1.7-2.3V36.7c0-0.7,0-1.2,0.1-1.5c0.1-0.6,0.4-0.9,0.8-0.9c0.2,0,0.4,0,0.7,0.1
			c0.3,0.1,0.6,0.1,0.7,0.1c0.5,0,0.9-0.2,1.2-0.7c0.3-0.4,0.5-1,0.5-1.6c0-0.8-0.2-1.4-0.6-1.8c-0.4-0.5-1-0.7-1.6-0.7
			c-0.3,0-1,0.1-2.1,0.2c-0.7,0.1-1.4,0.1-2,0.1c-0.6,0-1.3-0.1-2.2-0.2c-0.8-0.1-1.4-0.2-1.7-0.2c-0.6,0-1.2,0.2-1.6,0.7
			c-0.4,0.5-0.6,1.1-0.6,1.8c0,0.6,0.2,1.2,0.5,1.6c0.3,0.4,0.7,0.7,1.1,0.7c0.1,0,0.4,0,0.6-0.1c0.3-0.1,0.5-0.1,0.6-0.1
			c0.5,0,0.8,0.8,0.8,2.3V47l-5.5-14.9c-0.3-0.9-0.6-1.4-0.7-1.6c-0.3-0.5-0.7-0.7-1.3-0.7c-0.3,0-0.6,0-0.8,0.1
			c-0.6,0.1-1.1,0.1-1.5,0.1c-1,0.1-1.6,0.1-2,0.1c-0.5,0-1.1-0.1-2-0.2c-0.8-0.1-1.5-0.2-1.9-0.2c-0.7,0-1.2,0.2-1.6,0.7
			c-0.4,0.5-0.6,1.1-0.6,1.8c0,0.6,0.2,1.2,0.5,1.6c0.3,0.4,0.7,0.7,1.2,0.7c0.2,0,0.4,0,0.8-0.1c0.3-0.1,0.6-0.1,0.7-0.1
			c0.6,0,0.8,0.8,0.8,2.3v9.6c0,1.6-0.3,2.4-0.8,2.4c-0.2,0-0.4,0-0.7-0.1c-0.3-0.1-0.6-0.1-0.8-0.1c-0.5,0-0.9,0.2-1.2,0.7
			c-0.3,0.4-0.5,1-0.5,1.6c0,1.7,0.8,2.5,2.3,2.5c0.2,0,0.8-0.1,1.7-0.2c0.9-0.1,1.6-0.2,2.2-0.2c0.6,0,1.3,0,1.9,0.1
			c1,0.1,1.6,0.2,2.1,0.2c1.5,0,2.2-0.8,2.2-2.5c0-0.6-0.2-1.2-0.5-1.6c-0.3-0.4-0.7-0.7-1.1-0.7c-0.1,0-0.4,0-0.7,0.1
			c-0.3,0.1-0.5,0.1-0.7,0.1c-0.5,0-0.8-0.8-0.8-2.4V35.8L177.6,51.1z"/>
			<path d="M189.6,51.2c0,1.5,0.7,2.2,2,2.2c1.2,0,1.8-0.6,1.9-1.9c1.7,1.5,3.5,2.2,5.3,2.2c2.2,0,4.1-0.7,5.5-2.2
			c1.4-1.5,2.2-3.4,2.2-5.7c0-2-0.6-3.6-1.8-4.7c-1.2-1.2-3.1-2-5.7-2.6c-1.6-0.3-2.5-0.6-2.9-0.9c-0.4-0.3-0.6-0.7-0.6-1.5
			c0-1.4,0.9-2.1,2.7-2.1c1.9,0,3,0.8,3.3,2.3l0.2,0.7c0.2,1.1,0.9,1.7,2.1,1.7c1.4,0,2.1-0.7,2.1-2v-0.2c0-0.2,0-0.5-0.1-0.9
			c0-0.4-0.1-0.7-0.1-0.9c0-0.3,0-0.9,0.1-1.5c0.1-0.7,0.1-1.2,0.1-1.5c0-1.3-0.7-1.9-2-1.9c-0.6,0-1.1,0.2-1.4,0.5
			c-0.3,0.3-0.4,0.9-0.4,1.7c-1.2-1.6-3-2.5-5.1-2.5c-2,0-3.7,0.7-5,2c-1.3,1.3-1.9,3.1-1.9,5.2c0,2.1,0.7,3.8,2.2,5
			c0.8,0.6,1.6,1.1,2.5,1.4l2.1,0.6c1.7,0.5,2.8,0.9,3.3,1.2c0.5,0.3,0.7,0.9,0.7,1.7c0,0.7-0.3,1.3-0.8,1.8
			c-0.5,0.5-1.2,0.7-2.1,0.7c-2.1,0-3.3-0.9-3.6-2.6c-0.1-1-0.4-1.8-0.7-2.1c-0.3-0.4-0.9-0.6-1.7-0.6c-0.7,0-1.3,0.2-1.7,0.6
			c-0.4,0.4-0.7,0.9-0.7,1.5c0,0.3,0,0.6,0.1,1.2c0.1,0.5,0.1,0.9,0.1,1.2c0,0.4,0,1-0.1,1.7C189.6,50.2,189.6,50.7,189.6,51.2z"/>
			<path d="M217.7,34.4c0.2,0,0.4,0,0.7,0.1c0.3,0.1,0.6,0.1,0.7,0.1c0.5,0,0.9-0.2,1.2-0.7c0.3-0.4,0.5-1,0.5-1.6
			c0-1.7-0.8-2.5-2.3-2.5c-0.4,0-1.1,0.1-2.2,0.2c-1.1,0.1-1.9,0.2-2.5,0.2c-0.7,0-1.5,0-2.2-0.1c-1.1-0.1-1.9-0.2-2.2-0.2
			c-0.7,0-1.2,0.2-1.6,0.7c-0.4,0.5-0.6,1.1-0.6,1.9c0,0.6,0.2,1.2,0.5,1.6c0.3,0.4,0.7,0.7,1.2,0.7c0.2,0,0.4,0,0.8-0.1
			c0.3-0.1,0.6-0.1,0.7-0.1c0.4,0,0.7,0.3,0.8,0.9c0,0.2,0.1,0.7,0.1,1.4v9.6c0,0.7,0,1.2-0.1,1.5c-0.1,0.6-0.4,0.9-0.8,0.9
			c-0.2,0-0.4,0-0.7-0.1c-0.3-0.1-0.6-0.1-0.7-0.1c-0.5,0-0.9,0.2-1.2,0.6c-0.3,0.4-0.5,1-0.5,1.7c0,0.8,0.2,1.4,0.6,1.8
			c0.4,0.5,1,0.7,1.6,0.7c0.4,0,1.2-0.1,2.4-0.2c1-0.1,2-0.2,2.9-0.2c0.6,0,1.2,0,1.7,0.1l2,0.3c0.1,0,0.2,0,0.3,0
			c0.6,0,1.1-0.2,1.5-0.7c0.4-0.5,0.6-1.1,0.6-1.8c0-0.6-0.2-1.2-0.5-1.6c-0.3-0.4-0.7-0.7-1.2-0.7c-0.2,0-0.4,0-0.7,0.1
			c-0.3,0.1-0.6,0.1-0.7,0.1c-0.6,0-0.8-0.8-0.8-2.4v-9.6C216.8,35.2,217.1,34.4,217.7,34.4z"/>
			<path d="M225.1,48.7c-0.1,0-0.4,0-0.7-0.1c-0.3-0.1-0.6-0.1-0.8-0.1c-0.5,0-0.9,0.2-1.2,0.7c-0.3,0.4-0.5,1-0.5,1.6
			c0,0.8,0.2,1.4,0.6,1.8c0.4,0.5,1,0.7,1.6,0.7c0.1,0,0.5,0,0.9-0.1l1.2-0.1c0.6-0.1,1.3-0.1,2.1-0.1c0.7,0,1.2,0,1.7,0.1l2.3,0.2
			c0.5,0,1.1,0.1,1.8,0.1c1.8,0,3.3-0.4,4.6-1.2c1.5-0.9,2.6-2.3,3.5-4.2c0.9-1.9,1.3-4,1.3-6.3c0-2.3-0.5-4.4-1.4-6.4
			c-1.6-3.5-4.3-5.3-8.1-5.3c-0.6,0-1.2,0-1.8,0.1l-2.3,0.2c-0.9,0.1-1.5,0.1-1.7,0.1c-0.7,0-1.4,0-2.1-0.1
			c-1.1-0.1-1.8-0.2-2.2-0.2c-0.7,0-1.2,0.2-1.6,0.7c-0.4,0.5-0.6,1.1-0.6,1.8c0,0.6,0.2,1.2,0.5,1.6c0.3,0.4,0.7,0.7,1.2,0.7
			c0.2,0,0.4,0,0.8-0.1c0.3-0.1,0.6-0.1,0.7-0.1c0.6,0,0.8,0.8,0.8,2.3v9.6C226,47.9,225.7,48.7,225.1,48.7z M231.5,36.1
			c0-0.7,0.1-1.2,0.4-1.4c0.2-0.2,0.7-0.4,1.4-0.4c0.5,0,1,0.1,1.5,0.3c0.6,0.3,1.1,0.7,1.6,1.3c1.1,1.3,1.6,3.3,1.6,6
			c0,2.4-0.5,4.2-1.6,5.5c-0.9,1-1.9,1.6-3.1,1.6c-0.7,0-1.2-0.1-1.4-0.4c-0.2-0.3-0.4-0.7-0.4-1.5V36.1z"/>
			<path d="M264.4,44.8c0-1.9-0.8-2.8-2.3-2.8c-0.7,0-1.3,0.2-1.8,0.7c-0.4,0.5-0.7,1.2-0.7,2c0,0.3,0,0.7,0.1,1.1
			c0.1,0.5,0.1,0.8,0.1,1.2c0,0.6-0.3,1.1-0.8,1.4c-0.5,0.3-1.5,0.4-2.8,0.4h-1.8c-0.7,0-1.2-0.1-1.4-0.4c-0.3-0.3-0.4-0.8-0.4-1.7
			v-2.6c0-0.7,0.3-1.1,0.9-1.1c0.9,0,1.3,0.3,1.3,0.8c0,0.4-0.1,0.7-0.1,0.8v0.2c0,1.2,0.5,1.8,1.6,1.8c1.1,0,1.7-0.7,1.7-2
			c0-0.4,0-1-0.1-1.9c-0.1-0.9-0.1-1.7-0.1-2.3c0-0.6,0-1.4,0.1-2.1c0-0.4,0.1-0.8,0.1-1.1c0-1.2-0.5-1.8-1.6-1.8
			c-1,0-1.5,0.5-1.5,1.5c0,0.2,0,0.4,0,0.5v0.5c0,0.7-0.5,1.1-1.4,1.1c-0.4,0-0.6-0.1-0.7-0.3c-0.1-0.2-0.1-0.5-0.1-0.9v-1.9
			c0-0.7,0.2-1.2,0.5-1.4c0.2-0.1,0.7-0.2,1.4-0.2h3.1c0.7,0,1.1,0,1.3,0.1c0.5,0.1,0.7,0.4,0.7,0.9c0,0.3,0,0.6-0.1,1.2
			c-0.1,0.5-0.1,1-0.1,1.3c0,1.8,0.8,2.7,2.3,2.7c0.7,0,1.2-0.2,1.7-0.7c0.4-0.5,0.7-1,0.7-1.7c0-0.3,0-0.9-0.1-1.5
			c-0.1-0.7-0.1-1.2-0.1-1.6c0-0.4,0-0.9,0.1-1.6c0.1-0.7,0.1-1.3,0.1-1.6c0-1.1-0.6-1.7-1.7-1.7c-1,0-1.9,0-2.8,0.1
			c-0.5,0-1.7,0.1-3.4,0.1c-2.3,0.1-3.6,0.1-3.7,0.1c-1.5,0-3.1-0.1-4.7-0.2c-1.1-0.1-1.8-0.1-2.2-0.1c-1.5,0-2.3,0.8-2.3,2.5
			c0,0.6,0.2,1.2,0.5,1.6c0.3,0.4,0.7,0.7,1.2,0.7c0.2,0,0.4,0,0.7-0.1c0.4-0.1,0.6-0.1,0.7-0.1c0.6,0,0.8,0.8,0.8,2.3v9.6
			c0,1.6-0.3,2.4-0.8,2.4c-0.1,0-0.4,0-0.7-0.1c-0.3-0.1-0.6-0.1-0.7-0.1c-0.5,0-0.9,0.2-1.2,0.7c-0.3,0.4-0.5,1-0.5,1.6
			c0,0.7,0.2,1.4,0.6,1.8c0.4,0.5,0.9,0.7,1.6,0.7c0,0,0.1,0,0.2,0c0.1,0,0.1,0,0.1,0L248,53c0.7-0.1,1.5-0.1,2.6-0.1h2.8
			c3.3,0,5.7,0.1,7.3,0.2c0.9,0.1,1.6,0.1,2,0.1c1.2,0,1.8-0.5,1.8-1.6c0-0.5,0-0.9-0.1-1.4c-0.1-0.7-0.2-1.2-0.2-1.5
			c0-0.3,0.1-1,0.2-2.1C264.4,46,264.4,45.4,264.4,44.8z"/>
			<path d="M272.1,30.1c-0.7,0-1.4,0-2-0.1l-2.2-0.2c-0.1,0-0.2,0-0.3,0c-0.6,0-1.2,0.2-1.6,0.7c-0.4,0.5-0.6,1.1-0.6,1.8
			c0,0.6,0.2,1.2,0.5,1.6c0.3,0.4,0.7,0.7,1.2,0.7c0.2,0,0.4,0,0.8-0.1c0.3-0.1,0.6-0.1,0.7-0.1c0.4,0,0.7,0.3,0.8,0.9
			c0,0.2,0.1,0.7,0.1,1.4v9.6c0,1.6-0.3,2.4-0.8,2.4c-0.1,0-0.4,0-0.7-0.1c-0.3-0.1-0.6-0.1-0.8-0.1c-0.5,0-0.9,0.2-1.2,0.7
			c-0.3,0.4-0.5,1-0.5,1.6c0,1.7,0.8,2.5,2.3,2.5c0.6,0,1.3-0.1,2.2-0.2c0.9-0.1,1.6-0.2,2.3-0.2c0.6,0,1.4,0.1,2.2,0.2
			c0.9,0.1,1.5,0.2,2,0.2c1.5,0,2.2-0.8,2.2-2.5c0-0.6-0.2-1.2-0.5-1.6c-0.3-0.4-0.7-0.7-1.1-0.7c-0.2,0-0.4,0-0.7,0.1
			c-0.3,0.1-0.5,0.1-0.7,0.1c-0.5,0-0.8-0.8-0.8-2.4v-0.8c0-0.6,0.1-1.1,0.2-1.3c0.1-0.3,0.5-0.5,1.1-0.5c1.4,0,2.4,0.2,3,0.7
			c0.6,0.5,0.8,1.3,0.8,2.5v0.2l-0.1,2c0,0,0,0.1,0,0.2c0,1.2,0.2,2.1,0.7,2.8c0.5,0.7,1.1,1.1,1.9,1.1c0.2,0,0.6,0,1.1-0.1
			c0.5-0.1,0.9-0.1,1.1-0.1c0.2,0,0.6,0,1.1,0.1c0.5,0.1,0.8,0.1,1.1,0.1c0.7,0,1.2-0.2,1.6-0.7c0.4-0.5,0.6-1.1,0.6-1.8
			c0-0.7-0.1-1.3-0.4-1.7c-0.3-0.4-0.6-0.6-1.1-0.6c-0.1,0-0.3,0-0.6,0.1c-0.3,0.1-0.5,0.1-0.6,0.1c-0.5,0-0.7-0.5-0.7-1.4v-0.4
			c0-0.4,0-0.8,0-1.2c0-1.4-0.3-2.4-0.9-3.1c-0.6-0.7-1.7-1.2-3.2-1.5c1.3-0.3,2.2-0.7,2.8-1.2c1.1-0.8,1.6-2.1,1.6-3.8
			c0-1.9-0.6-3.4-1.7-4.5c-1.2-1.1-2.7-1.7-4.7-1.7c-0.6,0-1.5,0-2.8,0.1C274.9,30.1,273.3,30.1,272.1,30.1z M280.1,36.8
			c0,1.8-1.4,2.7-4.1,2.7c-0.4,0-0.7-0.1-0.9-0.2c-0.2-0.2-0.2-0.5-0.2-1v-2.1c0-0.8,0.2-1.3,0.7-1.5c0.2-0.1,0.8-0.2,1.6-0.2
			C279.1,34.4,280.1,35.2,280.1,36.8z"/>
		</g>
		<g>
			<g>
				<path style="fill:#BD2133;" d="M183.6,27c-2.8,0-5.2-0.9-6.9-2.8c-1.7-1.8-2.5-4.3-2.5-7.3c0-3.1,0.7-5.5,2.2-7.4
				c1.6-2,3.7-3,6.4-3c1.2,0,2.3,0.3,3.3,0.8c0.5-0.4,1.3-0.7,2.1-0.7c0.9,0,1.7,0.3,2.4,0.9c0.6,0.6,0.9,1.4,0.9,2.4
				c0,0.3,0,0.6-0.1,1.1c-0.1,0.8-0.1,1.1-0.1,1.2c0,0.2,0,0.4,0.1,0.7c0.1,0.5,0.1,0.9,0.1,1.2c0,0.8-0.2,1.5-0.7,2.1l-0.1,0.2
				c-0.1,0.1-0.2,0.2-0.3,0.3c0.1,0.1,0.3,0.2,0.4,0.4c0.7,0.8,1,1.8,1,3c0,2.1-0.9,3.8-2.5,5.1C187.9,26.4,185.9,27,183.6,27z
				 M183.7,13.5c-0.4,0-1.4,0-1.4,3.3c0,1.9,0.3,2.6,0.5,2.9c0.1,0.1,0.2,0.4,1,0.4c0.2,0,0.4,0,0.6-0.1l0-0.7c0-1,0.3-1.8,1-2.5
				c-0.1-0.1-0.1-0.1-0.2-0.2c-0.4-0.4-0.9-1.2-0.8-2.4l0-0.6C184.1,13.5,184,13.5,183.7,13.5z"/>
				<path style="fill:#BD2133;" d="M183.6,27.6c-3,0-5.5-1-7.3-3c-1.8-1.9-2.6-4.5-2.6-7.7c0-3.2,0.8-5.8,2.3-7.8
				c1.7-2.1,4-3.2,6.9-3.2c1.1,0,2.2,0.2,3.2,0.7c0.6-0.4,1.4-0.6,2.2-0.6c1.1,0,2.1,0.4,2.8,1.1c0.7,0.7,1.1,1.7,1.1,2.8
				c0,0.3,0,0.7-0.1,1.2c-0.1,0.8-0.1,1.1-0.1,1.1c0,0.1,0,0.4,0.1,0.6c0.1,0.5,0.1,0.9,0.1,1.3c0,0.9-0.3,1.7-0.8,2.4l-0.1,0.1
				c0.8,0.9,1.2,2,1.2,3.4c0,2.2-0.9,4.2-2.7,5.6C188.1,26.9,186.1,27.6,183.6,27.6z M182.9,7.2c-2.5,0-4.5,0.9-5.9,2.7
				c-1.4,1.7-2.1,4.1-2.1,7c0,2.9,0.8,5.2,2.3,6.9c1.6,1.7,3.7,2.6,6.4,2.6c2.2,0,4-0.6,5.4-1.7c1.5-1.2,2.3-2.8,2.3-4.7
				c0-1.1-0.3-1.9-0.9-2.6c-0.1-0.1-0.2-0.2-0.3-0.3l-0.5-0.5l0.5-0.5c0.1-0.1,0.2-0.1,0.2-0.2l0.1-0.2c0.4-0.5,0.5-1,0.5-1.7
				c0-0.3,0-0.6-0.1-1.1c-0.1-0.4-0.1-0.6-0.1-0.8c0-0.1,0-0.5,0.1-1.3c0.1-0.5,0.1-0.9,0.1-1.1c0-0.8-0.3-1.4-0.8-1.9
				c-0.5-0.5-1.2-0.8-1.9-0.8c-0.7,0-1.3,0.2-1.7,0.5L186.2,8l-0.3-0.2C185,7.4,184,7.2,182.9,7.2z M183.8,20.6
				c-0.9,0-1.3-0.4-1.5-0.7c-0.2-0.3-0.6-1.2-0.6-3.2c0-2.6,0.6-3.9,2-3.9c0.3,0,0.6,0.1,0.8,0.2l0.3,0.2l0,1c0,1,0.4,1.6,0.7,1.9
				c0.1,0.1,0.1,0.1,0.2,0.1l0.5,0.4l-0.5,0.5c-0.5,0.5-0.8,1.2-0.8,2l0,1.1l-0.4,0.2C184.4,20.6,184.1,20.6,183.8,20.6z
				 M183.4,19.3c0,0,0.1,0.1,0.4,0.1l0-0.1c0-0.9,0.2-1.8,0.8-2.5c-0.4-0.5-0.9-1.4-0.8-2.6l0-0.1c-0.6,0.1-0.7,1.7-0.7,2.6
				C182.9,18.6,183.3,19.2,183.4,19.3C183.3,19.3,183.4,19.3,183.4,19.3L183.4,19.3z"/>
			</g>
			<g>
				<path style="fill:#BD2133;" d="M192.7,26.7c-1,0-1.9-0.4-2.5-1.1c-0.6-0.7-0.9-1.5-0.9-2.5c0-0.9,0.3-1.7,0.8-2.3
				c0.6-0.7,1.4-1.1,2.3-1.1v-5.9c-0.9,0-1.7-0.4-2.3-1.1c-0.5-0.6-0.8-1.4-0.8-2.3c0-2.2,1.4-3.6,3.6-3.6c0.2,0,0.6,0,2.2,0.1
				c0.4,0,0.7,0.1,1,0.1c0.6,0,1.1,0,1.6,0c0.2,0,0.4,0,0.7-0.1c0.9-0.1,1.5-0.2,1.9-0.2c1.3,0,2.1,0.5,2.5,1c0.5,0.5,1,1.3,1,2.5
				c0,0.9-0.3,1.6-0.7,2.3c-0.6,0.7-1.4,1.1-2.3,1.1c-0.1,0-0.3,0-0.5,0v6.1c0,0,0,0.1,0,0.1h1.1c0,0,0,0,0,0
				c-0.1-0.5-0.1-0.8-0.1-1.1c0-1,0.4-1.9,1.2-2.6c0.7-0.6,1.6-1,2.6-1c2.3,0,3.7,1.5,3.7,3.7c0,0.2,0,0.4,0,0.7
				c0,0.2,0,0.5-0.1,0.8c0,0.2-0.1,0.5-0.1,0.6c0,0.2,0,0.3,0,0.4c0,0.1,0,0.3,0,0.4c0,0.1,0,0.3,0,0.4c0,0.3,0.1,0.6,0.1,0.8
				c0,0.3,0,0.4,0,0.5c0,1.9-1.3,3.1-3.4,3.1c-0.3,0-0.6,0-1.1,0c-0.4,0-0.9,0-1.4-0.1c-1.5-0.1-3.7-0.1-6.5-0.1c-0.4,0-0.7,0-1,0
				c-0.3,0-0.6,0-0.8,0.1c-0.3,0-0.6,0.1-0.9,0.1C193.3,26.7,193,26.7,192.7,26.7z M199.5,20C199.5,20,199.5,20,199.5,20
				C199.5,20,199.5,20,199.5,20z"/>
				<path style="fill:#BD2133;" d="M192.7,27.3c-1.2,0-2.2-0.4-3-1.3c-0.7-0.8-1.1-1.8-1.1-2.9c0-1,0.3-2,0.9-2.7
				c0.6-0.7,1.3-1.1,2.2-1.3v-4.8c-0.8-0.1-1.6-0.6-2.2-1.3c-0.6-0.7-0.9-1.6-0.9-2.6c0-2.5,1.7-4.2,4.2-4.2c0.2,0,0.7,0,2.3,0.2
				c0.4,0,0.7,0.1,1,0.1c0.6,0,1.1,0,1.5,0c0.2,0,0.4,0,0.6-0.1c0.9-0.1,1.5-0.2,2-0.2c1.5,0,2.4,0.6,3,1.2c0.5,0.5,1.2,1.5,1.2,3
				c0,1-0.3,1.9-0.9,2.6c-0.7,0.8-1.6,1.3-2.7,1.4v3.2c0.2-0.7,0.6-1.3,1.2-1.8c0.8-0.7,1.9-1.1,3-1.1c2.6,0,4.3,1.7,4.3,4.3
				c0,0.2,0,0.4,0,0.7c0,0.2,0,0.5-0.1,0.8c0,0.2,0,0.4-0.1,0.6c0,0.1,0,0.2,0,0.3c0,0.1,0,0.2,0,0.4c0,0.1,0,0.3,0,0.4
				c0,0.3,0.1,0.6,0.1,0.8c0,0.3,0,0.5,0,0.5c0,2.2-1.6,3.7-4,3.7c-0.3,0-0.6,0-1.1,0c-0.4,0-0.9,0-1.4-0.1
				c-1.5-0.1-3.6-0.1-6.5-0.1c-0.4,0-0.7,0-1,0c-0.3,0-0.5,0-0.8,0.1c-0.3,0-0.6,0.1-0.9,0.1C193.3,27.3,193,27.3,192.7,27.3z
				 M192.8,7.5c-1.8,0-3,1.1-3,2.9c0,0.7,0.2,1.4,0.6,1.9c0.5,0.6,1.1,0.9,1.8,0.9l0.6,0v7.1l-0.6,0c-0.7,0-1.4,0.3-1.8,0.9
				c-0.4,0.5-0.7,1.2-0.7,1.9c0,0.8,0.3,1.5,0.8,2.1c0.5,0.6,1.3,0.9,2.1,0.9c0.3,0,0.6,0,0.8,0c0.3,0,0.5-0.1,0.8-0.1
				c0.3,0,0.6-0.1,0.9-0.1c0.3,0,0.7,0,1.1,0c2.8,0,5,0,6.5,0.1c0.5,0,1,0.1,1.4,0.1c0.4,0,0.8,0,1,0c1.7,0,2.7-1,2.7-2.5
				c0,0,0-0.2,0-0.4c0-0.2,0-0.4-0.1-0.8c0-0.1,0-0.3,0-0.4c0-0.1,0-0.3,0-0.4c0-0.1,0-0.2,0-0.4c0-0.2,0-0.4,0.1-0.7
				c0-0.3,0.1-0.5,0.1-0.8c0-0.2,0-0.4,0-0.6c0-1.9-1.2-3.1-3.1-3.1c-0.9,0-1.6,0.3-2.2,0.8c-0.6,0.6-1,1.3-1,2.2c0,0.3,0,0.6,0.1,1
				l0.1,0.7h-2.5V20l0.3-0.5l-0.3,0.5v0l0,0.1l0-0.2v-6.7l0.7,0.1c0.2,0,0.3,0,0.4,0c0.7,0,1.4-0.3,1.8-0.9c0.4-0.5,0.6-1.2,0.6-1.9
				c0-1.1-0.4-1.7-0.8-2.1c-0.4-0.4-1-0.8-2.1-0.8c-0.4,0-1,0-1.8,0.2c-0.2,0-0.5,0.1-0.7,0.1c-0.5,0-1,0-1.7,0c-0.3,0-0.7,0-1-0.1
				C193.4,7.5,193,7.5,192.8,7.5z M199.4,20.6l-0.1,0l-0.1-0.1l0.3-0.5L199.4,20.6l0.1-0.6L199.4,20.6z"/>
			</g>
			<g>
				<path style="fill:#BD2133;" d="M225.5,26.7c-0.3,0-0.7,0-1.1-0.1c-0.4-0.1-0.6-0.1-0.7-0.1l-0.1,0c-0.3,0-0.7,0-1.2,0
				c-0.7,0-0.9,0-0.9,0c-1.2,0.2-1.6,0.2-1.8,0.2c-0.8,0-1.6-0.3-2.2-0.8c-0.6,0.5-1.4,0.8-2.2,0.8c-0.2,0-0.6,0-1.7-0.2
				c-0.2,0-0.5-0.1-1.2-0.1c-0.7,0-1.1,0-1.3,0.1c-1.3,0.2-1.6,0.2-1.7,0.2c-1,0-1.8-0.3-2.5-1c-0.7-0.6-1-1.5-1-2.5
				c0-2.6,1.7-3.5,3.1-3.5c0.1,0,0.1,0,0.2,0c0,0,0-0.1,0-0.1l3.3-9.4c0.5-1.5,1.2-2.5,2.1-3c0.6-0.3,1.4-0.5,2.6-0.5l1.4,0
				c1.6,0,2.2,0.2,2.6,0.4c0.8,0.4,1.4,1.2,1.8,2.5l3,10c1.9,0,3.1,1.4,3.1,3.4c0,1-0.3,1.9-1,2.5C227.3,26.3,226.5,26.7,225.5,26.7
				z"/>
				<path style="fill:#BD2133;" d="M225.5,27.3c-0.3,0-0.7,0-1.2-0.1l0,0c-0.3,0-0.5-0.1-0.6-0.1l-0.1,0c-0.3,0-0.7,0-1.1,0
				c-0.7,0-0.9,0-0.9,0c-1.1,0.2-1.6,0.2-1.9,0.2c-0.8,0-1.5-0.2-2.2-0.7c-0.6,0.4-1.4,0.7-2.2,0.7c-0.3,0-0.7,0-1.8-0.2
				c-0.1,0-0.4,0-1.1,0c-0.7,0-1.1,0-1.2,0.1c-1.3,0.2-1.6,0.2-1.8,0.2c-1.1,0-2.1-0.4-2.9-1.1c-0.8-0.8-1.2-1.8-1.2-2.9
				c0-2.7,1.7-4,3.5-4.1l3.2-9.1c0.6-1.7,1.4-2.7,2.4-3.3l0,0c0.7-0.4,1.5-0.5,2.8-0.6l1.4,0c1.7,0,2.4,0.3,2.8,0.5
				c1,0.5,1.7,1.4,2.1,2.9l2.9,9.6c1.9,0.2,3.2,1.8,3.2,4c0,1.2-0.4,2.2-1.2,3C227.7,26.9,226.6,27.3,225.5,27.3z M224.5,26
				c0.4,0.1,0.8,0.1,1,0.1c0.8,0,1.5-0.3,2.1-0.8c0.5-0.5,0.8-1.3,0.8-2.1c0-1.7-0.9-2.7-2.5-2.8l-0.4,0l-3.1-10.5
				c-0.3-1.1-0.8-1.8-1.5-2.1c-0.3-0.2-0.8-0.3-2.3-0.4l-1.4,0c-1.1,0-1.8,0.2-2.3,0.4c-0.7,0.4-1.3,1.3-1.8,2.6l-3.3,9.4
				c0,0,0,0.1-0.1,0.1l-0.2,0.4l-0.5,0c-0.1,0-0.2,0-0.2,0c-1.2,0-2.5,0.8-2.5,2.9c0,0.8,0.3,1.5,0.8,2c0.5,0.5,1.2,0.8,2,0.8
				c0.2,0,0.4,0,1.7-0.2c0.3,0,0.8-0.1,1.4-0.1c0.5,0,1,0,1.2,0.1c1.1,0.2,1.5,0.2,1.7,0.2c0.7,0,1.3-0.2,1.8-0.7l0.4-0.4l0.4,0.4
				c0.5,0.4,1.1,0.7,1.8,0.7c0.2,0,0.6,0,1.7-0.2c0.1,0,0.3,0,1,0c0.5,0,0.9,0,1.2,0l0.1,0C223.9,25.9,224.1,25.9,224.5,26z"/>
			</g>
			<g>
				<path style="fill:#BD2133;" d="M236.3,26.7c-0.2,0-0.4,0-0.5-0.1l-1.4-0.2c-0.8-0.1-2-0.1-3.1,0.1c-1.3,0.1-1.8,0.2-2,0.2
				c-1,0-1.9-0.3-2.5-1c-0.7-0.7-1-1.5-1-2.5c0-0.9,0.3-1.7,0.8-2.3c0.6-0.7,1.4-1.1,2.3-1.1v-5.9c-0.9,0-1.7-0.4-2.3-1.1
				c-0.5-0.6-0.8-1.4-0.8-2.3c0-1.3,0.5-2.1,1-2.6c0.5-0.5,1.3-1,2.5-1c0.2,0,0.6,0,1.9,0.2c0.5,0.1,1,0.1,1.5,0.1
				c0.3,0,0.8,0,1.8-0.1c1.2-0.1,1.6-0.1,1.8-0.1c2.2,0,3.6,1.4,3.6,3.6c0,0.9-0.3,1.6-0.8,2.3c-0.6,0.7-1.4,1.1-2.3,1.1v5.9
				c0.9,0,1.7,0.4,2.3,1.1c0.5,0.6,0.8,1.4,0.8,2.3c0,1-0.3,1.8-0.9,2.5C238.1,26.3,237.2,26.7,236.3,26.7z M236.7,20.7L236.7,20.7
				L236.7,20.7z"/>
				<path style="fill:#BD2133;" d="M236.3,27.3c-0.2,0-0.4,0-0.6-0.1l-1.4-0.2c-0.7-0.1-1.7-0.1-3,0.1c-1.4,0.1-1.8,0.2-2.1,0.2
				c-1.2,0-2.2-0.4-3-1.2c-0.8-0.8-1.2-1.8-1.2-3c0-1,0.3-2,0.9-2.7c0.6-0.7,1.3-1.1,2.2-1.3v-4.8c-0.8-0.1-1.6-0.6-2.2-1.3
				c-0.6-0.7-0.9-1.6-0.9-2.6c0-1.5,0.6-2.5,1.2-3c0.5-0.5,1.5-1.2,3-1.2c0.2,0,0.7,0,1.9,0.2c0.5,0.1,1,0.1,1.5,0.1
				c0.3,0,0.8,0,1.7-0.1c1.2-0.1,1.7-0.1,1.9-0.1c2.5,0,4.2,1.7,4.2,4.2c0,1-0.3,1.9-0.9,2.7c-0.6,0.7-1.3,1.1-2.2,1.3v4.8
				c0.8,0.1,1.6,0.6,2.2,1.3c0.6,0.7,0.9,1.7,0.9,2.7c0,1.1-0.4,2.1-1.1,2.9C238.4,26.9,237.4,27.3,236.3,27.3z M233.2,25.8
				c0.4,0,0.8,0,1.2,0.1l1.5,0.2c0.1,0,0.3,0,0.4,0c0.8,0,1.5-0.3,2.1-0.9c0.5-0.6,0.8-1.3,0.8-2.1c0-0.7-0.2-1.4-0.6-1.9
				c-0.5-0.6-1.1-0.9-1.8-0.9l-0.6,0v-7.1l0.6,0c0.7,0,1.4-0.3,1.8-0.9c0.4-0.5,0.6-1.2,0.6-1.9c0-1.8-1.1-2.9-2.9-2.9
				c-0.1,0-0.5,0-1.8,0.1c-1,0.1-1.5,0.1-1.8,0.1c-0.5,0-1.1,0-1.6-0.1c-1.2-0.1-1.6-0.2-1.8-0.2c-1.1,0-1.7,0.4-2.1,0.8
				c-0.4,0.4-0.8,1-0.8,2.1c0,0.7,0.2,1.4,0.6,1.9c0.5,0.6,1.1,0.9,1.8,0.9l0.6,0v7.1l-0.6,0c-0.7,0-1.4,0.3-1.8,0.9
				c-0.4,0.5-0.7,1.2-0.7,1.9c0,0.8,0.3,1.6,0.8,2.1c0.5,0.5,1.3,0.8,2.1,0.8c0.2,0,0.6,0,2-0.1C231.9,25.8,232.6,25.8,233.2,25.8z" />
			</g>
			<g>
				<path style="fill:#BD2133;" d="M251.1,26.4h-0.8c-0.4,0-1.2-0.1-1.8-0.6c-0.6,0.6-1.4,0.9-2.3,0.9c-0.3,0-0.7,0-1.1-0.1l-0.9-0.1
				c-0.2,0-0.5,0-0.9,0c-0.5,0-0.8,0-1.1,0.1l-1.7,0.2c-1,0-1.9-0.4-2.5-1.1c-0.6-0.7-1-1.5-1-2.5c0-0.9,0.3-1.7,0.8-2.3
				c0.6-0.7,1.4-1.1,2.3-1.1v-5.9c-0.9,0-1.7-0.4-2.3-1.1c-0.5-0.6-0.8-1.4-0.8-2.3c0-2.2,1.4-3.6,3.6-3.6c0.4,0,1.1,0,2.1,0.1
				c0.6,0.1,1.1,0.1,1.4,0.1l2.5-0.1c0.6-0.1,1.1-0.1,1.4-0.1c1.2,0,1.9,0.5,2.2,0.9c0.4,0.4,0.6,1,0.8,1.9l0,0l0.3,1.3l0.3-1
				c0.2-1,0.5-1.7,0.9-2.2c0.6-0.7,1.4-1.1,2.3-1.1c0.3,0,0.7,0,1.1,0.1l2.4,0.2c0.4,0,1.1-0.1,2.4-0.2c0.5,0,0.9-0.1,1.1-0.1
				c1,0,1.9,0.3,2.5,1c0.5,0.5,1,1.3,1,2.6c0,0.9-0.3,1.6-0.8,2.3c-0.6,0.7-1.4,1.1-2.3,1.1v5.9c0.9,0,1.7,0.4,2.3,1.1
				c0.5,0.6,0.8,1.4,0.8,2.3c0,1.3-0.6,2.1-1,2.6c-0.7,0.6-1.5,1-2.5,1c-0.4,0-1-0.1-1.8-0.2c-0.4-0.1-0.8-0.1-1.2-0.1
				c-0.1,0-0.4,0-1.1,0.1c-0.7,0.1-1.2,0.1-1.6,0.1c-1,0-1.8-0.3-2.4-1c-0.7,0.7-1.5,0.8-2,0.8h-0.6H251.1z M246,19.9
				C246,19.9,246,19.9,246,19.9L246,19.9z"/>
				<path style="fill:#BD2133;" d="M240.5,27.3L240.5,27.3c-1.2,0-2.2-0.4-3-1.3c-0.7-0.8-1.1-1.8-1.1-2.9c0-1,0.3-2,0.9-2.7
				c0.6-0.7,1.3-1.1,2.2-1.3v-4.8c-0.8-0.1-1.6-0.6-2.2-1.3c-0.6-0.7-0.9-1.6-0.9-2.6c0-2.5,1.7-4.2,4.2-4.2c0.5,0,1.2,0,2.1,0.1
				c0.5,0,1,0.1,1.3,0.1l2.5-0.1c0.6-0.1,1.1-0.1,1.5-0.1c1.4,0,2.3,0.6,2.7,1.2c0.3,0.3,0.5,0.8,0.7,1.3c0.2-0.5,0.4-0.9,0.7-1.2
				c0.7-0.8,1.7-1.3,2.8-1.3c0.3,0,0.7,0,1.2,0.1l2.4,0.2c0.3,0,1-0.1,2.3-0.2c0.5,0,0.9-0.1,1.2-0.1c1.2,0,2.2,0.4,3,1.2
				c0.6,0.5,1.2,1.5,1.2,3c0,1-0.3,1.9-0.9,2.7c-0.6,0.7-1.3,1.1-2.2,1.3v4.8c0.8,0.1,1.6,0.6,2.1,1.3c0.6,0.7,1,1.7,1,2.7
				c0,1.5-0.7,2.5-1.2,3c-0.8,0.8-1.8,1.2-3,1.2c-0.4,0-1-0.1-1.9-0.2c-0.4,0-0.7-0.1-1.1-0.1c-0.1,0-0.4,0-1,0.1
				c-0.7,0.1-1.2,0.1-1.7,0.1c-0.9,0-1.8-0.3-2.5-0.8c-0.8,0.5-1.5,0.6-1.9,0.6h-1.5c-0.4,0-1.1-0.1-1.8-0.5
				c-0.7,0.5-1.5,0.7-2.3,0.7c-0.3,0-0.7,0-1.2-0.1l-0.8-0.1c-0.2,0-0.5,0-0.8,0c-0.4,0-0.8,0-1.1,0.1L240.5,27.3z M240.5,7.5
				c-1.8,0-3,1.1-3,2.9c0,0.7,0.2,1.4,0.6,1.9c0.5,0.6,1.1,0.9,1.8,0.9l0.6,0v7.1l-0.6,0c-0.7,0-1.4,0.3-1.8,0.9
				c-0.4,0.5-0.7,1.2-0.7,1.9c0,0.8,0.3,1.5,0.8,2.1c0.5,0.6,1.2,0.9,2.1,0.9l1.7-0.2c0.3,0,0.7-0.1,1.2-0.1c0.4,0,0.7,0,0.9,0l0,0
				l0.9,0.1c0.4,0.1,0.7,0.1,1,0.1c0.7,0,1.4-0.2,1.9-0.7l0.4-0.4l0.4,0.3c0.5,0.4,1.1,0.5,1.5,0.5h1.5c0.3,0,1-0.1,1.5-0.6l0.4-0.4
				l0.4,0.4c0.5,0.5,1.2,0.8,2,0.8c0.4,0,0.9,0,1.5-0.1c0.7-0.1,1-0.1,1.2-0.1c0.4,0,0.9,0,1.3,0.1c0.8,0.1,1.3,0.2,1.7,0.2
				c0.8,0,1.6-0.3,2.1-0.8c0.4-0.4,0.8-1,0.8-2.1c0-0.7-0.2-1.4-0.7-1.9c-0.5-0.6-1.1-0.9-1.8-0.9l-0.6,0v-7.1l0.6,0
				c0.7,0,1.4-0.3,1.8-0.9c0.4-0.5,0.6-1.2,0.6-1.9c0-1.1-0.5-1.8-0.8-2.1c-0.5-0.5-1.3-0.8-2.1-0.8c-0.2,0-0.5,0-1.1,0.1
				c-1.1,0.1-1.9,0.2-2.4,0.2l0,0l-2.5-0.2c-0.4,0-0.8-0.1-1.1-0.1c-0.7,0-1.4,0.3-1.8,0.8c-0.3,0.4-0.6,1-0.8,1.9l-0.9,3.5
				l-0.9-3.9c-0.2-0.8-0.4-1.3-0.7-1.7c-0.3-0.3-0.8-0.7-1.8-0.7c-0.4,0-0.8,0-1.4,0.1l0,0L244,7.7l0,0c-0.4,0-0.9-0.1-1.4-0.1
				C241.6,7.5,241,7.5,240.5,7.5z M246,20.5L246,20.5l0-1.2L246,20.5z"/>
			</g>
			<g>
				<path style="fill:#BD2133;" d="M272.1,27c-1.2,0-2.4-0.3-3.5-0.8c-0.5,0.4-1.2,0.6-2,0.6c-2,0-3.4-1.3-3.4-3.3
				c0-0.4,0-0.8,0.1-1.3c0.1-0.4,0.1-0.7,0.1-0.9c0-0.1,0-0.3-0.1-0.6c0-0.4-0.1-0.8-0.1-1c0-1,0.4-1.8,1.2-2.4
				c0.1-0.1,0.2-0.1,0.3-0.2c-0.8-1-1.1-2.2-1.1-3.6c0-2,0.7-3.6,2-4.9c1.3-1.2,3-1.9,5-1.9c1.2,0,2.4,0.3,3.3,0.8
				c0.5-0.4,1.2-0.5,1.9-0.5c2,0,3.3,1.2,3.3,3.1c0,0.3,0,0.7-0.1,1.2c0,0.4-0.1,0.7-0.1,0.9c0,0.1,0,0.2,0,0.4
				c0,0.4,0.1,0.6,0.1,0.8c0,1-0.3,1.9-0.9,2.4c0.9,1.1,1.4,2.4,1.4,4c0,2.1-0.7,3.9-2.2,5.3C276.1,26.3,274.2,27,272.1,27z"/>
				<path style="fill:#BD2133;" d="M272.1,27.6c-1.2,0-2.3-0.2-3.4-0.7c-0.6,0.4-1.3,0.5-2.1,0.5c-2.4,0-4-1.6-4-3.9
				c0-0.4,0-0.9,0.1-1.4c0-0.3,0.1-0.7,0.1-0.9c0-0.1,0-0.3,0-0.6c0-0.4-0.1-0.8-0.1-1.1c0-1.1,0.5-2.1,1.3-2.8
				c-0.6-1-0.9-2.2-0.9-3.5c0-2.2,0.8-4,2.2-5.3c1.4-1.3,3.3-2,5.5-2c1.2,0,2.3,0.2,3.3,0.7c0.6-0.3,1.2-0.4,2-0.4
				c2.4,0,3.9,1.5,3.9,3.7c0,0.3,0,0.8-0.1,1.3c0,0.3-0.1,0.6-0.1,0.8c0,0.1,0,0.2,0,0.3c0,0.4,0.1,0.7,0.1,0.9c0,1-0.3,1.8-0.7,2.5
				c0.8,1.1,1.2,2.5,1.2,4c0,2.3-0.8,4.2-2.4,5.7C276.4,26.8,274.4,27.6,272.1,27.6z M268.5,25.4l0.3,0.2c1,0.5,2.1,0.8,3.2,0.8
				c2,0,3.7-0.6,5-1.9c1.3-1.3,2-2.9,2-4.8c0-1.4-0.4-2.6-1.2-3.6l-0.4-0.4l0.4-0.4c0.5-0.5,0.7-1.2,0.7-2c0-0.1,0-0.4-0.1-0.8
				c0-0.2,0-0.4,0-0.5c0-0.2,0-0.5,0.1-0.9c0.1-0.6,0.1-1,0.1-1.2c0-1.5-1-2.5-2.7-2.5c-0.7,0-1.2,0.1-1.6,0.4L274.1,8l-0.3-0.2
				c-0.9-0.5-1.9-0.7-3.1-0.7c-1.9,0-3.4,0.6-4.6,1.7c-1.2,1.1-1.9,2.6-1.9,4.4c0,1.2,0.3,2.3,1,3.3l0.4,0.5l-0.6,0.3
				c-0.1,0.1-0.2,0.1-0.3,0.2c-0.6,0.5-1,1.2-1,2c0,0.1,0,0.4,0.1,0.9c0,0.3,0.1,0.5,0.1,0.7c0,0.2,0,0.5-0.1,1
				c-0.1,0.4-0.1,0.8-0.1,1.2c0,1.7,1.1,2.7,2.7,2.7c0.7,0,1.2-0.2,1.7-0.5L268.5,25.4z"/>
			</g>
		</g>
		<g>
			<path style="fill:#FFFFFF;" d="M182.9,8.3c1.5,0,2.9,0.6,4,1.7c0,0,0-0.1,0-0.2c0-0.9,0.5-1.3,1.4-1.3c0.4,0,0.8,0.1,1.1,0.4
			c0.3,0.3,0.4,0.6,0.4,1.1c0,0.2,0,0.5-0.1,0.9c-0.1,0.7-0.1,1.1-0.1,1.4c0,0.2,0,0.5,0.1,0.9c0.1,0.4,0.1,0.7,0.1,0.9
			c0,0.5-0.2,0.9-0.5,1.2c-0.4,0.3-0.8,0.5-1.4,0.5c-1.2,0-1.8-0.5-1.8-1.5l0-0.7c0-0.5-0.2-1-0.6-1.3c-0.4-0.3-1-0.5-1.7-0.5
			c-2.1,0-3.2,1.7-3.2,5.1c0,1.8,0.3,3,0.8,3.8c0.5,0.8,1.3,1.2,2.5,1.2c0.7,0,1.3-0.2,1.7-0.5c0.4-0.3,0.7-0.8,0.6-1.3l0-0.9
			c0-0.5,0.1-0.9,0.5-1.2c0.3-0.3,0.8-0.5,1.3-0.5c0.7,0,1.2,0.2,1.6,0.7s0.6,1.1,0.6,1.8c0,1.5-0.6,2.8-1.8,3.7
			c-1.2,1-2.8,1.4-4.7,1.4c-2.3,0-4.2-0.7-5.5-2.2c-1.3-1.5-2-3.5-2-6.1c0-2.6,0.6-4.7,1.8-6.3C179.1,9.1,180.8,8.3,182.9,8.3z"/>
			<path style="fill:#FFFFFF;" d="M199.1,11.8c-0.5,0-0.8,0.4-0.8,1.3v6.7c0,0.6,0,1,0.1,1.2c0.1,0.4,0.4,0.7,0.8,0.7
			c0.1,0,0.2,0,0.4,0c0.1,0,0.3,0,0.5,0h1.2c1.3,0,1.9-0.4,1.9-1.2c0-0.2,0-0.5-0.1-0.8c-0.1-0.4-0.1-0.7-0.1-0.9
			c0-0.5,0.2-0.9,0.6-1.3c0.4-0.3,0.9-0.5,1.4-0.5c1.3,0,1.9,0.6,1.9,1.9c0,0.1,0,0.3,0,0.5c0,0.2,0,0.4-0.1,0.7
			c0,0.3-0.1,0.5-0.1,0.7c0,0.2,0,0.4,0,0.5c0,0.2,0,0.3,0,0.5c0,0.2,0,0.3,0,0.5c0,0.3,0.1,0.6,0.1,0.8c0,0.2,0,0.3,0,0.3
			c0,0.9-0.5,1.3-1.6,1.3c-0.3,0-0.6,0-1,0c-0.4,0-0.8,0-1.3-0.1c-1.5-0.1-3.7-0.1-6.6-0.1c-0.4,0-0.8,0-1.2,0
			c-0.3,0-0.7,0.1-0.9,0.1s-0.6,0.1-0.8,0.1c-0.2,0-0.5,0-0.7,0c-0.5,0-0.9-0.2-1.2-0.5c-0.3-0.3-0.5-0.8-0.5-1.3
			c0-0.5,0.1-0.8,0.4-1.1c0.2-0.3,0.6-0.4,0.9-0.4c0.1,0,0.3,0,0.6,0.1c0.2,0.1,0.4,0.1,0.6,0.1c0.4,0,0.6-0.5,0.6-1.6v-6.6
			c0-1.1-0.2-1.6-0.6-1.6c-0.1,0-0.3,0-0.6,0.1c-0.2,0.1-0.4,0.1-0.6,0.1c-0.4,0-0.7-0.2-0.9-0.5s-0.4-0.7-0.4-1.1
			c0-1.2,0.6-1.7,1.8-1.7c0.2,0,0.9,0,2.1,0.1c0.4,0,0.7,0.1,1.1,0.1c0.3,0,0.7,0,1,0c0.3,0,0.5,0,0.8,0c0.3,0,0.5,0,0.8-0.1
			c0.8-0.1,1.3-0.1,1.7-0.1c0.5,0,0.9,0.2,1.3,0.5c0.3,0.3,0.5,0.7,0.5,1.3c0,0.5-0.1,0.8-0.4,1.1c-0.2,0.3-0.5,0.5-0.9,0.5
			c-0.2,0-0.4,0-0.8-0.1C199.5,11.9,199.3,11.8,199.1,11.8z"/>
			<path style="fill:#FFFFFF;" d="M219.3,19.8h-3.2c-0.9,0-1.4,0.5-1.4,1.6c0,0.3,0.1,0.4,0.4,0.4c0.1,0,0.2,0,0.4,0
			c0.2,0,0.3,0,0.4,0c0.6,0,0.9,0.5,0.9,1.4c0,0.5-0.1,0.9-0.4,1.2c-0.3,0.3-0.6,0.5-1.1,0.5c-0.2,0-0.7-0.1-1.5-0.2
			c-0.3,0-0.8-0.1-1.4-0.1c-0.7,0-1.2,0-1.5,0.1c-0.8,0.1-1.3,0.2-1.5,0.2c-0.5,0-0.9-0.2-1.2-0.5c-0.3-0.3-0.5-0.7-0.5-1.2
			c0-1.1,0.4-1.7,1.3-1.7c0.1,0,0.2,0,0.5,0c0.2,0,0.4,0,0.5,0c0.3,0,0.6-0.2,0.7-0.5c0-0.1,0.2-0.4,0.3-0.9l3.3-9.4
			c0.4-1.1,0.8-1.7,1.3-2c0.4-0.2,1.1-0.3,2.3-0.3c1.3,0,2.2,0.1,2.5,0.3c0.4,0.2,0.6,0.6,0.9,1.4l3.1,10.2c0.2,0.8,0.5,1.2,0.8,1.2
			c0.1,0,0.3,0,0.5-0.1h0.3c0.9,0,1.3,0.5,1.3,1.6c0,0.5-0.2,0.9-0.5,1.3c-0.3,0.3-0.7,0.5-1.2,0.5c-0.2,0-0.5,0-0.9-0.1
			c-0.4-0.1-0.7-0.1-0.9-0.1c-0.4,0-0.8,0-1.4,0c-0.6,0-1,0-1.2,0c-0.8,0.1-1.3,0.2-1.5,0.2c-0.4,0-0.8-0.2-1.1-0.5
			c-0.3-0.3-0.4-0.7-0.4-1.2c0-0.9,0.3-1.4,0.9-1.4c0.1,0,0.2,0,0.4,0c0.2,0,0.3,0,0.4,0c0.3,0,0.5-0.2,0.5-0.5
			c0-0.4-0.1-0.8-0.3-1.1C219.8,19.9,219.5,19.8,219.3,19.8z M218.9,16.1l-1.1-4.9l-1.5,5.1c0,0,0,0.1,0,0.2c0,0.2,0.2,0.3,0.6,0.3
			h1.5c0.4,0,0.6-0.1,0.6-0.3C218.9,16.4,218.9,16.3,218.9,16.1z"/>
			<path style="fill:#FFFFFF;" d="M229.9,21.7c0.3,0,0.5-0.2,0.6-0.6c0-0.2,0-0.5,0-1v-6.6c0-0.5,0-0.8,0-1c-0.1-0.4-0.3-0.6-0.6-0.6
			c-0.1,0-0.3,0-0.6,0.1c-0.2,0.1-0.4,0.1-0.6,0.1c-0.4,0-0.7-0.2-0.9-0.5s-0.4-0.7-0.4-1.1c0-0.5,0.2-1,0.5-1.3
			c0.3-0.3,0.7-0.5,1.3-0.5c0.2,0,0.8,0,1.7,0.1c0.6,0.1,1.2,0.1,1.7,0.1c0.4,0,1.1,0,1.9-0.1c0.8-0.1,1.4-0.1,1.7-0.1
			c1.2,0,1.7,0.6,1.7,1.7c0,0.4-0.1,0.8-0.4,1.1c-0.2,0.3-0.6,0.5-0.9,0.5c-0.1,0-0.3,0-0.6-0.1c-0.3-0.1-0.4-0.1-0.6-0.1
			c-0.4,0-0.6,0.5-0.6,1.6v6.6c0,1.1,0.2,1.6,0.6,1.6c0.1,0,0.3,0,0.6-0.1c0.3-0.1,0.4-0.1,0.6-0.1c0.4,0,0.7,0.2,0.9,0.5
			c0.2,0.3,0.4,0.7,0.4,1.1c0,0.5-0.2,0.9-0.5,1.3c-0.3,0.3-0.7,0.5-1.2,0.5c-0.1,0-0.2,0-0.2,0l-1.5-0.2c-0.4,0-0.8-0.1-1.3-0.1
			c-0.7,0-1.5,0-2.3,0.1c-0.9,0.1-1.6,0.1-1.8,0.1c-0.5,0-0.9-0.2-1.2-0.5c-0.3-0.3-0.5-0.7-0.5-1.3c0-0.5,0.1-0.8,0.4-1.1
			c0.2-0.3,0.6-0.4,0.9-0.4c0.1,0,0.3,0,0.6,0.1S229.8,21.7,229.9,21.7z"/>
			<path style="fill:#FFFFFF;" d="M249.2,10.2l2,8.7l2.1-8.4c0.2-0.7,0.4-1.2,0.6-1.4c0.2-0.3,0.5-0.4,0.9-0.4c0.4,0,0.9,0,1.6,0.1
			c0.7,0.1,1.3,0.1,1.6,0.1c0.4,0,1.3-0.1,2.8-0.2c0.4,0,0.7,0,1,0c0.5,0,0.9,0.2,1.3,0.5c0.3,0.3,0.5,0.7,0.5,1.3
			c0,0.4-0.1,0.8-0.4,1.1c-0.2,0.3-0.6,0.5-0.9,0.5c-0.1,0-0.3,0-0.6-0.1c-0.3-0.1-0.4-0.1-0.6-0.1c-0.4,0-0.6,0.5-0.6,1.6v6.6
			c0,1.1,0.2,1.6,0.6,1.6c0.1,0,0.3,0,0.6-0.1s0.4-0.1,0.6-0.1c0.4,0,0.7,0.2,0.9,0.5c0.3,0.3,0.4,0.7,0.4,1.1c0,0.5-0.2,1-0.5,1.3
			c-0.3,0.3-0.7,0.5-1.3,0.5c-0.3,0-0.8,0-1.5-0.1c-0.5-0.1-1-0.1-1.4-0.1c-0.3,0-0.8,0-1.3,0.1c-0.6,0.1-1,0.1-1.3,0.1
			c-0.5,0-0.9-0.2-1.2-0.5c-0.3-0.3-0.4-0.7-0.4-1.3c0-1,0.3-1.5,1-1.5c0.1,0,0.2,0,0.2,0c0,0,0.1,0,0.2,0c0.1,0,0.1,0,0.1,0
			c0.3,0,0.4-0.2,0.5-0.5c0-0.2,0-0.4,0-0.8v-9l-3.3,11.8c-0.3,1-0.8,1.5-1.4,1.5h-1.5c-0.6,0-1.1-0.5-1.3-1.4l-3.2-11.9v9
			c0,0.8,0.1,1.2,0.2,1.3c0,0,0.1,0.1,0.3,0.1c0,0,0.1,0,0.1,0c0,0,0.1,0,0.1,0c0,0,0.1,0,0.2,0c0.6,0,1,0.5,1,1.5
			c0,0.5-0.1,1-0.4,1.3c-0.3,0.3-0.7,0.5-1.1,0.5c-0.2,0-0.5,0-0.9-0.1c-0.4-0.1-0.7-0.1-0.8-0.1c-0.3,0-0.7,0-1.1,0
			c-0.5,0-1,0-1.4,0.1l-1.5,0.2c-0.5,0-0.9-0.2-1.2-0.5c-0.3-0.3-0.5-0.8-0.5-1.3c0-0.5,0.1-0.8,0.4-1.1c0.2-0.3,0.6-0.4,0.9-0.4
			c0.1,0,0.3,0,0.6,0.1s0.4,0.1,0.6,0.1c0.3,0,0.5-0.2,0.6-0.6c0-0.2,0-0.5,0-1v-6.6c0-0.5,0-0.8,0-1c-0.1-0.4-0.3-0.6-0.6-0.6
			c-0.1,0-0.3,0-0.6,0.1c-0.2,0.1-0.4,0.1-0.6,0.1c-0.4,0-0.7-0.2-0.9-0.5c-0.2-0.3-0.4-0.7-0.4-1.1c0-1.2,0.6-1.7,1.8-1.7
			c0.4,0,1,0,1.9,0.1c0.9,0.1,1.6,0.1,2,0.1c0.7,0,1.5,0,2.3-0.1c0.5-0.1,0.9-0.1,1.2-0.1c0.4,0,0.7,0.1,0.8,0.3
			C249,9.2,249.1,9.6,249.2,10.2z"/>
			<path style="fill:#FFFFFF;" d="M270.7,8.3c1.7,0,3,0.6,3.9,1.7c0-0.6,0.1-0.9,0.3-1.1c0.2-0.2,0.5-0.3,1-0.3c1,0,1.5,0.4,1.5,1.3
			c0,0.2,0,0.6-0.1,1.1c0,0.5-0.1,0.8-0.1,1.1c0,0.1,0,0.4,0,0.6c0,0.3,0,0.5,0,0.6v0.1c0,0.9-0.5,1.4-1.6,1.4
			c-0.9,0-1.5-0.4-1.6-1.1l-0.1-0.5c-0.2-1-1.1-1.6-2.5-1.6c-1.4,0-2.1,0.5-2.1,1.4c0,0.5,0.1,0.8,0.4,1c0.3,0.2,1,0.4,2.2,0.6
			c2,0.4,3.5,1,4.4,1.8c0.9,0.8,1.4,1.9,1.4,3.3c0,1.6-0.6,2.9-1.7,4c-1.1,1-2.5,1.5-4.2,1.5c-1.4,0-2.8-0.5-4.1-1.5
			c0,0.9-0.5,1.3-1.4,1.3c-1,0-1.6-0.5-1.6-1.5c0-0.3,0-0.7,0.1-1.1c0.1-0.5,0.1-0.9,0.1-1.2c0-0.2,0-0.4-0.1-0.8
			c0-0.4-0.1-0.6-0.1-0.8c0-0.4,0.2-0.8,0.5-1c0.3-0.3,0.8-0.4,1.3-0.4c0.6,0,1,0.1,1.3,0.4c0.3,0.3,0.5,0.8,0.6,1.5
			c0.2,1.2,1.1,1.8,2.7,1.8c0.7,0,1.2-0.2,1.6-0.5c0.4-0.3,0.6-0.7,0.6-1.2c0-0.6-0.2-1-0.5-1.2c-0.4-0.2-1.2-0.5-2.5-0.8l-1.6-0.4
			c-0.7-0.2-1.3-0.5-1.9-0.9c-1.1-0.9-1.7-2-1.7-3.5c0-1.5,0.5-2.7,1.5-3.6C267.9,8.8,269.1,8.3,270.7,8.3z"/>
		</g>
		<path d="M27.9,21.2l8.1,29l8.6-29c0.3-1,0.5-1.7,0.5-2.2c0-1-0.5-1.5-1.4-1.4l-1.3,0.1h-0.2c-2.8,0-4.1-1.8-4.1-5.4
		c0-4.4,1.9-6.6,5.8-6.6c1.3,0,3.1,0.2,5.6,0.5c2.5,0.3,4.3,0.5,5.6,0.5c1.9,0,3.7-0.1,5.2-0.4c2.3-0.4,4.1-0.5,5.1-0.5
		c1.9,0,3.4,0.6,4.5,1.8c1.1,1.2,1.7,2.7,1.7,4.6c0,1.7-0.4,3.2-1.3,4.4c-0.9,1.2-1.9,1.8-3.2,1.8c-0.4,0-1-0.1-1.8-0.3
		c-0.8-0.2-1.3-0.3-1.5-0.3c-1.4,0-3,2.6-4.7,7.8l-11,33.4c-1.6,4.9-4,7.4-7.1,7.4c-0.6,0-1.5,0-2.7-0.1c-1.2-0.1-2.1-0.1-2.7-0.1
		c-0.6,0-1.5,0-2.6,0.1c-1.1,0.1-2,0.1-2.6,0.1c-3.2,0-5.9-3.5-8.1-10.5L11.4,22c-1-2.9-2-4.4-3.2-4.4c-0.4,0-1,0.1-1.7,0.3
		c-0.7,0.2-1.4,0.3-2,0.3c-1.3,0-2.4-0.6-3.2-1.7C0.4,15.5,0,14,0,12.3c0-4.4,2.2-6.6,6.6-6.6c1.2,0,3,0.2,5.5,0.5
		c2.5,0.3,4.3,0.5,5.6,0.5c1.8,0,3.8-0.2,6.1-0.5c2.3-0.3,3.9-0.5,4.8-0.5c4,0,5.9,2.2,5.9,6.7c0,3.5-1.2,5.3-3.7,5.3h-0.9
		c-0.2-0.1-0.5-0.1-0.8-0.1c-1.1,0-1.6,0.5-1.6,1.5C27.5,19.7,27.6,20.4,27.9,21.2z"/>
		<path d="M93.4,47.5h-12c-3.4,0-5.1,2-5.1,6.1c0,1,0.5,1.4,1.5,1.4c0.3,0,0.8,0,1.4-0.1c0.6-0.1,1.1-0.1,1.4-0.1
		c2.2,0,3.3,1.8,3.3,5.3c0,1.9-0.5,3.5-1.5,4.7c-1,1.2-2.4,1.8-4.1,1.8c-0.8,0-2.7-0.2-5.6-0.6c-1.3-0.2-3-0.3-5.3-0.3
		c-2.5,0-4.4,0.1-5.8,0.3c-3.2,0.4-5.1,0.6-5.7,0.6c-1.9,0-3.4-0.6-4.6-1.7c-1.2-1.1-1.8-2.6-1.8-4.5c0-4.2,1.6-6.3,4.8-6.3
		c0.4,0,0.9,0,1.7,0.1c0.8,0.1,1.4,0.1,1.7,0.1c1.1,0,2.1-0.6,2.8-1.9c0.2-0.4,0.6-1.5,1.3-3.3l12.4-35.4c1.4-4,3.1-6.5,4.9-7.6
		c1.3-0.7,4.2-1,8.7-1c5,0,8.2,0.3,9.6,0.9c1.3,0.6,2.4,2.4,3.2,5.3l11.5,38.4c0.9,3.1,2,4.6,3.2,4.6c0.4,0,1-0.1,1.9-0.3h1
		c3.4,0,5,2,5,5.9c0,2-0.6,3.6-1.8,4.8c-1.2,1.2-2.8,1.8-4.7,1.8c-0.8,0-2-0.1-3.3-0.3c-1.7-0.3-2.8-0.5-3.3-0.5
		c-1.3-0.1-3-0.2-5.1-0.2c-2.3,0-3.8,0.1-4.6,0.2c-3.1,0.5-5,0.7-5.8,0.7c-1.6,0-3-0.6-4-1.8c-1.1-1.2-1.6-2.8-1.6-4.6
		c0-3.5,1.1-5.3,3.4-5.3c0.3,0,0.8,0,1.4,0.1c0.6,0.1,1.1,0.1,1.4,0.1c1.1,0,1.7-0.6,1.7-1.9c0-1.6-0.3-3-1-4.1
		C95.3,48.1,94.5,47.5,93.4,47.5z M92.1,33.7l-4.3-18.5l-5.6,19.2c-0.1,0.2-0.1,0.4-0.1,0.6c0,0.7,0.8,1.1,2.3,1.1h5.6
		c1.6,0,2.3-0.4,2.3-1.3C92.3,35,92.2,34.6,92.1,33.7z"/>
		<path style="fill:#BD2133;" d="M27.9,21.2l8.1,29l8.6-29c0.3-1,0.5-1.7,0.5-2.2c0-1-0.5-1.5-1.4-1.4l-1.3,0.1h-0.2
		c-2.8,0-4.1-1.8-4.1-5.4c0-4.4,1.9-6.6,5.8-6.6c1.3,0,3.1,0.2,5.6,0.5c2.5,0.3,4.3,0.5,5.6,0.5c1.9,0,3.7-0.1,5.2-0.4
		c2.3-0.4,4.1-0.5,5.1-0.5c1.9,0,3.4,0.6,4.5,1.8c1.1,1.2,1.7,2.7,1.7,4.6c0,1.7-0.4,3.2-1.3,4.4c-0.9,1.2-1.9,1.8-3.2,1.8
		c-0.4,0-1-0.1-1.8-0.3c-0.8-0.2-1.3-0.3-1.5-0.3c-1.4,0-3,2.6-4.7,7.8l-11,33.4c-1.6,4.9-4,7.4-7.1,7.4c-0.6,0-1.5,0-2.7-0.1
		c-1.2-0.1-2.1-0.1-2.7-0.1c-0.6,0-1.5,0-2.6,0.1c-1.1,0.1-2,0.1-2.6,0.1c-3.2,0-5.9-3.5-8.1-10.5L11.4,22c-1-2.9-2-4.4-3.2-4.4
		c-0.4,0-1,0.1-1.7,0.3c-0.7,0.2-1.4,0.3-2,0.3c-1.3,0-2.4-0.6-3.2-1.7C0.4,15.5,0,14,0,12.3c0-4.4,2.2-6.6,6.6-6.6
		c1.2,0,3,0.2,5.5,0.5c2.5,0.3,4.3,0.5,5.6,0.5c1.8,0,3.8-0.2,6.1-0.5c2.3-0.3,3.9-0.5,4.8-0.5c4,0,5.9,2.2,5.9,6.7
		c0,3.5-1.2,5.3-3.7,5.3h-0.9c-0.2-0.1-0.5-0.1-0.8-0.1c-1.1,0-1.6,0.5-1.6,1.5C27.5,19.7,27.6,20.4,27.9,21.2z"/>
		<path style="fill:#BD2133;" d="M93.4,47.5h-12c-3.4,0-5.1,2-5.1,6.1c0,1,0.5,1.4,1.5,1.4c0.3,0,0.8,0,1.4-0.1
		c0.6-0.1,1.1-0.1,1.4-0.1c2.2,0,3.3,1.8,3.3,5.3c0,1.9-0.5,3.5-1.5,4.7c-1,1.2-2.4,1.8-4.1,1.8c-0.8,0-2.7-0.2-5.6-0.6
		c-1.3-0.2-3-0.3-5.3-0.3c-2.5,0-4.4,0.1-5.8,0.3c-3.2,0.4-5.1,0.6-5.7,0.6c-1.9,0-3.4-0.6-4.6-1.7c-1.2-1.1-1.8-2.6-1.8-4.5
		c0-4.2,1.6-6.3,4.8-6.3c0.4,0,0.9,0,1.7,0.1c0.8,0.1,1.4,0.1,1.7,0.1c1.1,0,2.1-0.6,2.8-1.9c0.2-0.4,0.6-1.5,1.3-3.3l12.4-35.4
		c1.4-4,3.1-6.5,4.9-7.6c1.3-0.7,4.2-1,8.7-1c5,0,8.2,0.3,9.6,0.9c1.3,0.6,2.4,2.4,3.2,5.3l11.5,38.4c0.9,3.1,2,4.6,3.2,4.6
		c0.4,0,1-0.1,1.9-0.3h1c3.4,0,5,2,5,5.9c0,2-0.6,3.6-1.8,4.8c-1.2,1.2-2.8,1.8-4.7,1.8c-0.8,0-2-0.1-3.3-0.3
		c-1.7-0.3-2.8-0.5-3.3-0.5c-1.3-0.1-3-0.2-5.1-0.2c-2.3,0-3.8,0.1-4.6,0.2c-3.1,0.5-5,0.7-5.8,0.7c-1.6,0-3-0.6-4-1.8
		c-1.1-1.2-1.6-2.8-1.6-4.6c0-3.5,1.1-5.3,3.4-5.3c0.3,0,0.8,0,1.4,0.1c0.6,0.1,1.1,0.1,1.4,0.1c1.1,0,1.7-0.6,1.7-1.9
		c0-1.6-0.3-3-1-4.1C95.3,48.1,94.5,47.5,93.4,47.5z M92.1,33.7l-4.3-18.5l-5.6,19.2c-0.1,0.2-0.1,0.4-0.1,0.6
		c0,0.7,0.8,1.1,2.3,1.1h5.6c1.6,0,2.3-0.4,2.3-1.3C92.3,35,92.2,34.6,92.1,33.7z"/>
		<g>
			<g>
				<g>
					<path style="fill:#0054A6;" d="M293.1,48.1h1.3c0.8,0,1.4,0.3,1.4,1c0,0.7-0.6,1.1-1.4,1.1h-0.7v1.4h-0.6V48.1z M294.3,49.7
					c0.6,0,0.9-0.2,0.9-0.6c0-0.4-0.3-0.6-0.9-0.6h-0.6v1.2H294.3z M294.8,49.7l1.2,1.9h-0.7l-1-1.6L294.8,49.7z"/>
					<path style="fill:#0054A6;" d="M296.1,51.6h-0.8l0,0l-0.9-1.4h-0.6v1.4h-0.7v-3.6h1.3c1,0,1.5,0.4,1.5,1.1c0,0.5-0.3,0.9-0.8,1
					L296.1,51.6z M295.3,51.5h0.6l-0.9-1.4c-0.2,0-0.3,0.1-0.5,0.1L295.3,51.5z M293.2,51.5h0.5v-1.4h0.6l-0.1-0.1l0.4-0.2
					c-0.1,0-0.2,0-0.2,0h-0.7v-1.3h0.7c0.4,0,1,0.1,1,0.6c0,0.2-0.1,0.5-0.5,0.6l0.2,0.3c0.5-0.1,0.8-0.5,0.8-0.9c0-0.6-0.5-1-1.4-1
					h-1.2V51.5z M294.4,50.1L294.4,50.1c0.2,0,0.4,0,0.5-0.1l-0.2-0.3L294.4,50.1L294.4,50.1z M293.8,49.7h0.6
					c0.6,0,0.9-0.2,0.9-0.6c0-0.4-0.3-0.5-0.9-0.5h-0.6V49.7z"/>
				</g>
			</g>
			<g>
				<path style="fill:#0054A6;" d="M294.3,53c-1.7,0-3.1-1.4-3.1-3.1c0-1.7,1.4-3.1,3.1-3.1s3.1,1.4,3.1,3.1
				C297.4,51.6,296,53,294.3,53z M294.3,47.2c-1.5,0-2.7,1.2-2.7,2.7c0,1.5,1.2,2.7,2.7,2.7s2.7-1.2,2.7-2.7
				C296.9,48.4,295.7,47.2,294.3,47.2z"/>
				<path style="fill:#0054A6;" d="M294.3,53c-1.8,0-3.2-1.4-3.2-3.2c0-1.8,1.4-3.2,3.2-3.2c1.8,0,3.2,1.4,3.2,3.2
				C297.5,51.6,296,53,294.3,53z M294.3,46.8c-1.7,0-3.1,1.4-3.1,3.1c0,1.7,1.4,3.1,3.1,3.1c1.7,0,3.1-1.4,3.1-3.1
				C297.4,48.1,296,46.8,294.3,46.8z M294.3,52.6c-1.5,0-2.7-1.2-2.7-2.7s1.2-2.7,2.7-2.7s2.7,1.2,2.7,2.7S295.8,52.6,294.3,52.6z
				 M294.3,47.2c-1.4,0-2.6,1.2-2.6,2.6s1.2,2.6,2.6,2.6s2.6-1.2,2.6-2.6S295.7,47.2,294.3,47.2z"/>
			</g>
		</g>
		<g>
			<g>
				<path style="fill:#0054A6;" d="M151.4,48.7c0.4,0,0.7-0.3,0.8-0.9c0-0.2,0.1-0.7,0.1-1.5v-9.6c0-0.7,0-1.2-0.1-1.4
				c-0.1-0.6-0.4-0.9-0.8-0.9c-0.2,0-0.4,0-0.7,0.1c-0.3,0.1-0.6,0.1-0.8,0.1c-0.5,0-0.9-0.2-1.2-0.7c-0.3-0.4-0.5-1-0.5-1.6
				c0-0.8,0.2-1.4,0.6-1.9c0.4-0.5,1-0.7,1.6-0.7c0.3,0,1,0.1,2.2,0.2c0.8,0.1,1.5,0.1,2.2,0.1c0.6,0,1.4-0.1,2.5-0.2
				c1.1-0.1,1.8-0.2,2.2-0.2c1.5,0,2.3,0.8,2.3,2.5c0,0.6-0.2,1.2-0.5,1.6c-0.3,0.4-0.7,0.7-1.2,0.7c-0.2,0-0.4,0-0.7-0.1
				c-0.3-0.1-0.6-0.1-0.7-0.1c-0.6,0-0.8,0.8-0.8,2.3v9.6c0,1.6,0.3,2.4,0.8,2.4c0.2,0,0.4,0,0.7-0.1c0.3-0.1,0.6-0.1,0.7-0.1
				c0.5,0,0.9,0.2,1.2,0.7c0.3,0.4,0.5,1,0.5,1.6c0,0.7-0.2,1.4-0.6,1.8c-0.4,0.5-0.9,0.7-1.5,0.7c-0.1,0-0.2,0-0.3,0l-2-0.3
				c-0.5-0.1-1-0.1-1.7-0.1c-0.9,0-1.9,0.1-2.9,0.2c-1.2,0.1-2,0.2-2.4,0.2c-0.7,0-1.2-0.2-1.6-0.7c-0.4-0.5-0.6-1.1-0.6-1.8
				c0-0.7,0.2-1.2,0.5-1.7c0.3-0.4,0.7-0.6,1.2-0.6c0.2,0,0.4,0,0.7,0.1C151,48.7,151.2,48.7,151.4,48.7z"/>
				<path style="fill:#0054A6;" d="M159.7,53.4c-0.1,0-0.2,0-0.3,0l-2-0.3c-0.5-0.1-1-0.1-1.6-0.1c-0.9,0-1.9,0.1-2.9,0.2
				c-1.2,0.1-2,0.2-2.4,0.2c-0.7,0-1.2-0.2-1.7-0.7c-0.4-0.5-0.6-1.1-0.6-1.9c0-0.7,0.2-1.2,0.5-1.7c0.3-0.4,0.8-0.7,1.3-0.7
				c0.2,0,0.4,0,0.7,0.1c0.3,0.1,0.6,0.1,0.7,0.1c0.4,0,0.6-0.3,0.7-0.9c0-0.2,0.1-0.7,0.1-1.4v-9.6c0-0.7,0-1.2-0.1-1.4
				c-0.1-0.6-0.3-0.9-0.7-0.9c-0.2,0-0.4,0-0.7,0.1c-0.3,0.1-0.6,0.1-0.8,0.1c-0.5,0-0.9-0.2-1.2-0.7c-0.3-0.4-0.5-1-0.5-1.7
				c0-0.8,0.2-1.4,0.6-1.9c0.4-0.5,1-0.7,1.7-0.7c0.3,0,1,0.1,2.2,0.2c0.8,0.1,1.5,0.1,2.2,0.1c0.6,0,1.4-0.1,2.5-0.2
				c1.1-0.1,1.8-0.2,2.2-0.2c1.5,0,2.3,0.9,2.3,2.6c0,0.7-0.2,1.2-0.5,1.7c-0.3,0.5-0.8,0.7-1.2,0.7c-0.2,0-0.4,0-0.8-0.1
				c-0.3-0.1-0.6-0.1-0.7-0.1c-0.5,0-0.8,0.8-0.8,2.3v9.6c0,1.5,0.3,2.3,0.8,2.3c0.2,0,0.4,0,0.7-0.1c0.3-0.1,0.6-0.1,0.8-0.1
				c0.5,0,0.9,0.2,1.2,0.7c0.3,0.4,0.5,1,0.5,1.7c0,0.8-0.2,1.4-0.6,1.9C160.8,53.1,160.3,53.4,159.7,53.4z M155.8,52.8
				c0.6,0,1.2,0,1.7,0.1l2,0.3c0.1,0,0.2,0,0.3,0c0.6,0,1.1-0.2,1.5-0.7c0.4-0.5,0.6-1.1,0.6-1.8c0-0.6-0.2-1.2-0.5-1.6
				c-0.3-0.4-0.7-0.6-1.2-0.6c-0.2,0-0.4,0-0.7,0.1c-0.3,0.1-0.6,0.1-0.8,0.1c-0.6,0-0.9-0.8-0.9-2.4v-9.6c0-1.6,0.3-2.4,0.9-2.4
				c0.2,0,0.4,0,0.8,0.1c0.3,0.1,0.6,0.1,0.7,0.1c0.5,0,0.8-0.2,1.2-0.6c0.3-0.4,0.5-1,0.5-1.6c0-1.7-0.7-2.5-2.2-2.5
				c-0.4,0-1.1,0.1-2.2,0.2c-1.1,0.1-1.9,0.2-2.5,0.2c-0.7,0-1.5,0-2.3-0.1c-1.1-0.1-1.9-0.2-2.2-0.2c-0.7,0-1.2,0.2-1.6,0.7
				c-0.4,0.4-0.6,1.1-0.6,1.8c0,0.6,0.2,1.2,0.5,1.6c0.3,0.4,0.7,0.6,1.2,0.6c0.2,0,0.4,0,0.7-0.1c0.3-0.1,0.6-0.1,0.7-0.1
				c0.4,0,0.7,0.3,0.8,1c0,0.2,0.1,0.7,0.1,1.4v9.6c0,0.7,0,1.2-0.1,1.5c-0.1,0.6-0.4,1-0.8,1c-0.2,0-0.4,0-0.7-0.1
				c-0.3-0.1-0.6-0.1-0.7-0.1c-0.5,0-0.9,0.2-1.2,0.6c-0.3,0.4-0.5,1-0.5,1.6c0,0.7,0.2,1.4,0.6,1.8c0.4,0.4,0.9,0.7,1.6,0.7
				c0.4,0,1.2-0.1,2.4-0.2C153.9,52.9,154.8,52.8,155.8,52.8z"/>
			</g>
			<g>
				<path style="fill:#0054A6;" d="M175.4,32.1l5.5,14.9V36.7c0-1.6-0.3-2.3-0.8-2.3c-0.1,0-0.4,0-0.6,0.1c-0.3,0.1-0.5,0.1-0.6,0.1
				c-0.4,0-0.8-0.2-1.1-0.7c-0.3-0.4-0.5-1-0.5-1.6c0-0.8,0.2-1.4,0.6-1.8c0.4-0.5,0.9-0.7,1.6-0.7c0.3,0,0.9,0.1,1.7,0.2
				s1.5,0.2,2.2,0.2c0.6,0,1.2,0,2-0.1c1.1-0.1,1.8-0.2,2.1-0.2c0.7,0,1.2,0.2,1.6,0.7c0.4,0.5,0.6,1.1,0.6,1.8
				c0,0.6-0.2,1.2-0.5,1.6c-0.3,0.4-0.7,0.7-1.2,0.7c-0.2,0-0.4,0-0.7-0.1c-0.3-0.1-0.6-0.1-0.7-0.1c-0.4,0-0.7,0.3-0.8,0.9
				c0,0.2-0.1,0.7-0.1,1.5v14.1c0,1.5-0.6,2.3-1.7,2.3c-0.2,0-0.5,0-1-0.1c-0.4,0-0.7-0.1-1-0.1c0,0-0.5,0-1.5,0.1h-0.7
				c-0.6,0-1-0.2-1.3-0.5c-0.2-0.2-0.4-0.7-0.7-1.5l-6-15.3v10.5c0,1.6,0.3,2.4,0.8,2.4c0.1,0,0.4,0,0.7-0.1
				c0.3-0.1,0.5-0.1,0.7-0.1c0.4,0,0.8,0.2,1.1,0.7c0.3,0.4,0.5,1,0.5,1.6c0,1.7-0.7,2.5-2.2,2.5c-0.4,0-1.1-0.1-2.1-0.2
				c-0.6-0.1-1.3-0.1-1.9-0.1c-0.5,0-1.3,0.1-2.2,0.2c-0.9,0.1-1.5,0.2-1.7,0.2c-1.5,0-2.3-0.8-2.3-2.5c0-0.6,0.2-1.2,0.5-1.6
				c0.3-0.4,0.7-0.7,1.2-0.7c0.2,0,0.4,0,0.8,0.1c0.3,0.1,0.6,0.1,0.7,0.1c0.6,0,0.8-0.8,0.8-2.4v-9.6c0-1.6-0.3-2.3-0.8-2.3
				c-0.2,0-0.4,0-0.7,0.1c-0.3,0.1-0.6,0.1-0.8,0.1c-0.5,0-0.9-0.2-1.2-0.7c-0.3-0.4-0.5-1-0.5-1.6c0-0.8,0.2-1.4,0.6-1.8
				c0.4-0.5,1-0.7,1.6-0.7c0.4,0,1.1,0.1,1.9,0.2c0.8,0.1,1.5,0.2,2,0.2c0.4,0,1.1,0,2-0.1c0.4,0,0.9-0.1,1.5-0.1
				c0.2,0,0.5-0.1,0.8-0.1c0.6,0,1,0.2,1.3,0.7C174.8,30.7,175.1,31.2,175.4,32.1z"/>
				<path style="fill:#0054A6;" d="M173.1,53.3c-0.4,0-1.1-0.1-2.1-0.2c-0.6-0.1-1.3-0.1-1.9-0.1c-0.5,0-1.3,0.1-2.2,0.2
				c-0.9,0.1-1.5,0.2-1.8,0.2c-1.5,0-2.3-0.9-2.3-2.6c0-0.7,0.2-1.2,0.5-1.7c0.3-0.5,0.8-0.7,1.2-0.7c0.2,0,0.4,0,0.8,0.1
				c0.3,0.1,0.6,0.1,0.7,0.1c0.5,0,0.8-0.8,0.8-2.3v-9.6c0-1.5-0.3-2.3-0.8-2.3c-0.2,0-0.4,0-0.7,0.1c-0.3,0.1-0.6,0.1-0.8,0.1
				c-0.5,0-0.9-0.2-1.2-0.7c-0.3-0.4-0.5-1-0.5-1.7c0-0.8,0.2-1.4,0.6-1.9c0.4-0.5,1-0.7,1.7-0.7c0.4,0,1.1,0.1,1.9,0.2
				c0.8,0.1,1.5,0.2,2,0.2c0.4,0,1.1,0,2-0.1c0.4,0,0.9-0.1,1.5-0.1c0.2,0,0.5-0.1,0.8-0.1c0.6,0,1,0.3,1.4,0.8
				c0.1,0.2,0.4,0.7,0.7,1.6l0,0l5.4,14.6v-10c0-1.5-0.3-2.3-0.8-2.3c-0.1,0-0.3,0-0.6,0.1c-0.3,0.1-0.5,0.1-0.7,0.1
				c-0.5,0-0.8-0.2-1.2-0.7c-0.3-0.4-0.5-1-0.5-1.7c0-0.8,0.2-1.4,0.6-1.9c0.4-0.5,0.9-0.7,1.6-0.7c0.3,0,0.9,0.1,1.7,0.2
				c0.8,0.1,1.5,0.2,2.1,0.2c0.6,0,1.2,0,2-0.1c1.1-0.1,1.8-0.2,2.1-0.2c0.7,0,1.2,0.2,1.7,0.7c0.4,0.5,0.6,1.1,0.6,1.9
				c0,0.7-0.2,1.2-0.5,1.7c-0.3,0.5-0.8,0.7-1.3,0.7c-0.2,0-0.4,0-0.8-0.1c-0.3-0.1-0.5-0.1-0.7-0.1c-0.4,0-0.6,0.3-0.8,0.8
				c0,0.2-0.1,0.7-0.1,1.4v14.1c0,1.6-0.6,2.4-1.7,2.4c-0.2,0-0.5,0-1-0.1c-0.4,0-0.7-0.1-0.9-0.1c0,0-0.6,0-1.5,0.1h-0.7
				c-0.6,0-1.1-0.2-1.4-0.5c-0.2-0.2-0.4-0.7-0.7-1.5l-5.9-15v10.2c0,1.5,0.3,2.3,0.8,2.3c0.1,0,0.4,0,0.7-0.1
				c0.3-0.1,0.5-0.1,0.7-0.1c0.5,0,0.8,0.2,1.2,0.7c0.3,0.4,0.5,1,0.5,1.7C175.4,52.5,174.6,53.3,173.1,53.3z M169.1,52.9
				c0.6,0,1.3,0,1.9,0.1c0.9,0.1,1.6,0.2,2,0.2c1.4,0,2.1-0.8,2.1-2.5c0-0.6-0.1-1.2-0.4-1.6c-0.3-0.4-0.6-0.6-1.1-0.6
				c-0.1,0-0.4,0-0.7,0.1c-0.3,0.1-0.5,0.1-0.7,0.1c-0.6,0-0.9-0.8-0.9-2.4V35.5l6.1,15.6c0.3,0.8,0.5,1.3,0.7,1.5
				c0.3,0.3,0.7,0.5,1.3,0.5h0.7c1.1-0.1,1.5-0.1,1.5-0.1c0.2,0,0.5,0,1,0.1c0.4,0,0.7,0.1,0.9,0.1c1.1,0,1.6-0.7,1.6-2.2V36.7
				c0-0.8,0-1.2,0.1-1.5c0.1-0.6,0.4-0.9,0.9-0.9c0.2,0,0.4,0,0.7,0.1c0.3,0.1,0.6,0.1,0.7,0.1c0.5,0,0.8-0.2,1.2-0.6
				c0.3-0.4,0.5-1,0.5-1.6c0-0.7-0.2-1.4-0.6-1.8c-0.4-0.4-0.9-0.7-1.6-0.7c-0.3,0-1,0.1-2.1,0.2c-0.7,0.1-1.4,0.1-2,0.1
				c-0.6,0-1.4-0.1-2.2-0.2c-0.8-0.1-1.4-0.2-1.7-0.2c-0.6,0-1.1,0.2-1.5,0.7c-0.4,0.5-0.6,1.1-0.6,1.8c0,0.6,0.1,1.2,0.4,1.6
				c0.3,0.4,0.6,0.6,1.1,0.6c0.1,0,0.4,0,0.6-0.1c0.3-0.1,0.5-0.1,0.7-0.1c0.6,0,0.9,0.8,0.9,2.4v10.6l-5.6-15.2
				c-0.3-0.9-0.6-1.4-0.7-1.6c-0.3-0.5-0.7-0.7-1.3-0.7c-0.3,0-0.6,0-0.8,0.1c-0.6,0.1-1.1,0.1-1.5,0.1c-0.9,0.1-1.6,0.1-2,0.1
				c-0.5,0-1.1-0.1-2-0.2c-0.8-0.1-1.5-0.2-1.9-0.2c-0.6,0-1.2,0.2-1.6,0.7c-0.4,0.5-0.6,1.1-0.6,1.8c0,0.6,0.2,1.2,0.5,1.6
				c0.3,0.4,0.7,0.6,1.2,0.6c0.2,0,0.4,0,0.7-0.1c0.3-0.1,0.6-0.1,0.7-0.1c0.6,0,0.9,0.8,0.9,2.4v9.6c0,1.6-0.3,2.4-0.9,2.4
				c-0.2,0-0.4,0-0.7-0.1c-0.3-0.1-0.6-0.1-0.7-0.1c-0.5,0-0.8,0.2-1.2,0.6c-0.3,0.4-0.5,1-0.5,1.6c0,1.7,0.7,2.5,2.2,2.5
				c0.2,0,0.8-0.1,1.7-0.2C167.9,52.9,168.6,52.9,169.1,52.9z"/>
			</g>
			<g>
				<path style="fill:#0054A6;" d="M197.1,29.3c2.2,0,3.9,0.8,5.1,2.5c0-0.8,0.2-1.4,0.4-1.7c0.3-0.3,0.7-0.5,1.4-0.5
				c1.3,0,2,0.6,2,1.9c0,0.3,0,0.9-0.1,1.5c-0.1,0.7-0.1,1.2-0.1,1.5c0,0.2,0,0.5,0.1,0.9s0.1,0.7,0.1,0.9v0.2c0,1.4-0.7,2-2.1,2
				c-1.2,0-1.9-0.6-2.1-1.7l-0.2-0.7c-0.3-1.5-1.4-2.3-3.3-2.3c-1.8,0-2.7,0.7-2.7,2.1c0,0.7,0.2,1.2,0.6,1.5
				c0.4,0.3,1.4,0.6,2.9,0.9c2.6,0.6,4.5,1.4,5.7,2.6c1.2,1.2,1.8,2.7,1.8,4.7c0,2.3-0.7,4.3-2.2,5.7c-1.4,1.5-3.3,2.2-5.5,2.2
				c-1.8,0-3.6-0.7-5.3-2.2c-0.1,1.3-0.7,1.9-1.9,1.9c-1.4,0-2-0.7-2-2.2c0-0.5,0-1,0.1-1.6c0.1-0.7,0.1-1.3,0.1-1.7
				c0-0.3,0-0.6-0.1-1.2c-0.1-0.5-0.1-0.9-0.1-1.2c0-0.6,0.2-1.1,0.7-1.5c0.4-0.4,1-0.6,1.7-0.6c0.8,0,1.4,0.2,1.7,0.6
				c0.3,0.4,0.6,1.1,0.7,2.1c0.2,1.7,1.4,2.6,3.6,2.6c0.9,0,1.6-0.2,2.1-0.7c0.5-0.5,0.8-1.1,0.8-1.8c0-0.8-0.2-1.4-0.7-1.7
				c-0.5-0.3-1.5-0.7-3.3-1.2l-2.1-0.6c-0.9-0.3-1.7-0.7-2.5-1.4c-1.5-1.3-2.2-2.9-2.2-5c0-2.1,0.6-3.9,1.9-5.2
				C193.4,30,195,29.3,197.1,29.3z"/>
				<path style="fill:#0054A6;" d="M198.8,53.8c-1.8,0-3.6-0.7-5.3-2.2c-0.1,1.2-0.7,1.9-1.9,1.9c-1.4,0-2.1-0.8-2.1-2.3
				c0-0.5,0-1,0.1-1.6c0.1-0.7,0.1-1.3,0.1-1.7c0-0.2,0-0.6-0.1-1.2c-0.1-0.5-0.1-0.9-0.1-1.2c0-0.6,0.2-1.1,0.7-1.5
				c0.5-0.4,1.1-0.6,1.8-0.6c0.8,0,1.4,0.2,1.7,0.6c0.3,0.4,0.6,1.1,0.7,2.2c0.2,1.7,1.4,2.6,3.5,2.6c0.9,0,1.5-0.2,2.1-0.7
				c0.5-0.4,0.8-1,0.8-1.8c0-0.8-0.2-1.3-0.7-1.7c-0.4-0.3-1.5-0.7-3.3-1.2l-2.1-0.6c-0.9-0.3-1.7-0.7-2.5-1.4
				c-1.5-1.3-2.3-3-2.3-5.1c0-2.1,0.7-3.9,1.9-5.2c1.3-1.3,3-2,5-2c2.1,0,3.8,0.8,5.1,2.4c0-0.7,0.2-1.3,0.4-1.5
				c0.3-0.3,0.7-0.5,1.4-0.5c1.4,0,2.1,0.7,2.1,1.9c0,0.4,0,0.9-0.1,1.5c-0.1,0.7-0.1,1.2-0.1,1.5c0,0.2,0,0.5,0.1,0.9
				c0,0.4,0.1,0.7,0.1,0.9v0.2c0,1.4-0.7,2.1-2.2,2.1c-1.2,0-1.9-0.6-2.2-1.7l-0.2-0.7c-0.3-1.5-1.4-2.2-3.2-2.2
				c-1.8,0-2.6,0.7-2.6,2c0,0.7,0.2,1.2,0.6,1.4c0.4,0.2,1.3,0.6,2.9,0.9c2.6,0.6,4.5,1.5,5.7,2.6c1.2,1.2,1.8,2.8,1.8,4.8
				c0,2.3-0.7,4.3-2.2,5.8C202.9,53,201.1,53.8,198.8,53.8z M193.4,51.4L193.4,51.4c1.8,1.5,3.6,2.3,5.4,2.3c2.2,0,4-0.7,5.4-2.2
				c1.4-1.5,2.1-3.4,2.1-5.7c0-2-0.6-3.5-1.8-4.7c-1.2-1.1-3.1-2-5.7-2.6c-1.6-0.4-2.5-0.7-2.9-0.9c-0.4-0.3-0.6-0.8-0.6-1.5
				c0-1.4,0.9-2.1,2.7-2.1c1.9,0,3,0.8,3.4,2.3l0.2,0.7c0.2,1.1,0.9,1.6,2.1,1.6c1.4,0,2.1-0.7,2.1-2v-0.2c0-0.2,0-0.5-0.1-0.9
				c0-0.4-0.1-0.7-0.1-0.9c0-0.3,0-0.9,0.1-1.5c0.1-0.7,0.1-1.2,0.1-1.5c0-1.2-0.6-1.8-1.9-1.8c-0.6,0-1.1,0.1-1.3,0.4
				c-0.3,0.3-0.4,0.8-0.4,1.6l0,0.2l-0.1-0.1c-1.2-1.6-2.9-2.4-5.1-2.4c-2,0-3.7,0.7-4.9,2c-1.3,1.3-1.9,3-1.9,5.2
				c0,2.1,0.7,3.8,2.2,5c0.8,0.6,1.6,1.1,2.5,1.3l2.1,0.6c1.7,0.5,2.8,0.9,3.3,1.2c0.5,0.3,0.7,0.9,0.7,1.8c0,0.8-0.3,1.4-0.8,1.8
				c-0.5,0.5-1.2,0.7-2.1,0.7c-2.2,0-3.4-0.9-3.6-2.7c-0.1-1-0.4-1.7-0.7-2.1c-0.3-0.4-0.9-0.6-1.7-0.6c-0.7,0-1.3,0.2-1.7,0.6
				c-0.4,0.4-0.6,0.9-0.6,1.4c0,0.3,0,0.6,0.1,1.2c0.1,0.5,0.1,0.9,0.1,1.2c0,0.4,0,1-0.1,1.7c-0.1,0.6-0.1,1.1-0.1,1.6
				c0,1.5,0.6,2.2,2,2.2c1.2,0,1.8-0.6,1.8-1.9L193.4,51.4z"/>
			</g>
			<g>
				<path style="fill:#0054A6;" d="M210.4,48.7c0.4,0,0.7-0.3,0.8-0.9c0-0.2,0.1-0.7,0.1-1.5v-9.6c0-0.7,0-1.2-0.1-1.4
				c-0.1-0.6-0.4-0.9-0.8-0.9c-0.2,0-0.4,0-0.7,0.1c-0.3,0.1-0.6,0.1-0.8,0.1c-0.5,0-0.9-0.2-1.2-0.7c-0.3-0.4-0.5-1-0.5-1.6
				c0-0.8,0.2-1.4,0.6-1.9c0.4-0.5,1-0.7,1.6-0.7c0.3,0,1,0.1,2.2,0.2c0.8,0.1,1.5,0.1,2.2,0.1c0.6,0,1.4-0.1,2.5-0.2
				c1.1-0.1,1.8-0.2,2.2-0.2c1.5,0,2.3,0.8,2.3,2.5c0,0.6-0.2,1.2-0.5,1.6c-0.3,0.4-0.7,0.7-1.2,0.7c-0.2,0-0.4,0-0.7-0.1
				c-0.3-0.1-0.6-0.1-0.7-0.1c-0.6,0-0.8,0.8-0.8,2.3v9.6c0,1.6,0.3,2.4,0.8,2.4c0.2,0,0.4,0,0.7-0.1c0.3-0.1,0.6-0.1,0.7-0.1
				c0.5,0,0.9,0.2,1.2,0.7c0.3,0.4,0.5,1,0.5,1.6c0,0.7-0.2,1.4-0.6,1.8c-0.4,0.5-0.9,0.7-1.5,0.7c-0.1,0-0.2,0-0.3,0l-2-0.3
				c-0.5-0.1-1-0.1-1.7-0.1c-0.9,0-1.9,0.1-2.9,0.2c-1.2,0.1-2,0.2-2.4,0.2c-0.7,0-1.2-0.2-1.6-0.7c-0.4-0.5-0.6-1.1-0.6-1.8
				c0-0.7,0.2-1.2,0.5-1.7c0.3-0.4,0.7-0.6,1.2-0.6c0.2,0,0.4,0,0.7,0.1C210,48.7,210.2,48.7,210.4,48.7z"/>
				<path style="fill:#0054A6;" d="M218.7,53.4c-0.1,0-0.2,0-0.3,0l-2-0.3c-0.5-0.1-1-0.1-1.6-0.1c-0.9,0-1.9,0.1-2.9,0.2
				c-1.2,0.1-2,0.2-2.4,0.2c-0.7,0-1.2-0.2-1.7-0.7c-0.4-0.5-0.6-1.1-0.6-1.9c0-0.7,0.2-1.2,0.5-1.7c0.3-0.4,0.8-0.7,1.3-0.7
				c0.2,0,0.4,0,0.7,0.1c0.3,0.1,0.6,0.1,0.7,0.1c0.4,0,0.6-0.3,0.7-0.9c0-0.2,0.1-0.7,0.1-1.4v-9.6c0-0.7,0-1.2-0.1-1.4
				c-0.1-0.6-0.3-0.9-0.7-0.9c-0.2,0-0.4,0-0.7,0.1c-0.3,0.1-0.6,0.1-0.8,0.1c-0.5,0-0.9-0.2-1.2-0.7c-0.3-0.4-0.5-1-0.5-1.7
				c0-0.8,0.2-1.4,0.6-1.9c0.4-0.5,1-0.7,1.7-0.7c0.3,0,1,0.1,2.2,0.2c0.8,0.1,1.5,0.1,2.2,0.1c0.6,0,1.4-0.1,2.5-0.2
				c1.1-0.1,1.8-0.2,2.2-0.2c1.5,0,2.3,0.9,2.3,2.6c0,0.7-0.2,1.2-0.5,1.7c-0.3,0.5-0.8,0.7-1.2,0.7c-0.2,0-0.4,0-0.8-0.1
				c-0.3-0.1-0.6-0.1-0.7-0.1c-0.5,0-0.8,0.8-0.8,2.3v9.6c0,1.5,0.3,2.3,0.8,2.3c0.2,0,0.4,0,0.7-0.1c0.3-0.1,0.6-0.1,0.8-0.1
				c0.5,0,0.9,0.2,1.2,0.7c0.3,0.4,0.5,1,0.5,1.7c0,0.8-0.2,1.4-0.6,1.9C219.9,53.1,219.3,53.4,218.7,53.4z M214.8,52.8
				c0.6,0,1.2,0,1.7,0.1l2,0.3c0.1,0,0.2,0,0.3,0c0.6,0,1.1-0.2,1.5-0.7c0.4-0.5,0.6-1.1,0.6-1.8c0-0.6-0.2-1.2-0.5-1.6
				c-0.3-0.4-0.7-0.6-1.2-0.6c-0.2,0-0.4,0-0.7,0.1c-0.3,0.1-0.6,0.1-0.8,0.1c-0.6,0-0.9-0.8-0.9-2.4v-9.6c0-1.6,0.3-2.4,0.9-2.4
				c0.2,0,0.4,0,0.8,0.1c0.3,0.1,0.6,0.1,0.7,0.1c0.5,0,0.8-0.2,1.2-0.6c0.3-0.4,0.5-1,0.5-1.6c0-1.7-0.7-2.5-2.2-2.5
				c-0.4,0-1.1,0.1-2.2,0.2c-1.1,0.1-1.9,0.2-2.5,0.2c-0.7,0-1.5,0-2.3-0.1c-1.1-0.1-1.9-0.2-2.2-0.2c-0.7,0-1.2,0.2-1.6,0.7
				c-0.4,0.4-0.6,1.1-0.6,1.8c0,0.6,0.2,1.2,0.5,1.6c0.3,0.4,0.7,0.6,1.2,0.6c0.2,0,0.4,0,0.7-0.1c0.3-0.1,0.6-0.1,0.7-0.1
				c0.4,0,0.7,0.3,0.8,1c0,0.2,0.1,0.7,0.1,1.4v9.6c0,0.7,0,1.2-0.1,1.5c-0.1,0.6-0.4,1-0.8,1c-0.2,0-0.4,0-0.7-0.1
				c-0.3-0.1-0.6-0.1-0.7-0.1c-0.5,0-0.9,0.2-1.2,0.6c-0.3,0.4-0.5,1-0.5,1.6c0,0.7,0.2,1.4,0.6,1.8c0.4,0.4,0.9,0.7,1.6,0.7
				c0.4,0,1.2-0.1,2.4-0.2C212.9,52.9,213.9,52.8,214.8,52.8z"/>
			</g>
			<g>
				<path style="fill:#0054A6;" d="M225.1,48.7c0.6,0,0.8-0.8,0.8-2.4v-9.6c0-1.6-0.3-2.3-0.8-2.3c-0.2,0-0.4,0-0.7,0.1
				c-0.3,0.1-0.6,0.1-0.8,0.1c-0.5,0-0.9-0.2-1.2-0.7c-0.3-0.4-0.5-1-0.5-1.6c0-0.8,0.2-1.4,0.6-1.8c0.4-0.5,1-0.7,1.6-0.7
				c0.4,0,1.1,0.1,2.2,0.2c0.7,0.1,1.4,0.1,2.1,0.1c0.2,0,0.8,0,1.7-0.1l2.3-0.2c0.6,0,1.2-0.1,1.8-0.1c3.8,0,6.5,1.8,8.1,5.3
				c0.9,2,1.4,4.1,1.4,6.4c0,2.3-0.4,4.4-1.3,6.3c-0.9,1.9-2,3.3-3.5,4.2c-1.3,0.8-2.8,1.2-4.6,1.2c-0.7,0-1.3,0-1.8-0.1l-2.3-0.2
				c-0.5,0-1.1-0.1-1.7-0.1c-0.8,0-1.5,0-2.1,0.1l-1.2,0.1c-0.5,0.1-0.8,0.1-0.9,0.1c-0.7,0-1.2-0.2-1.6-0.7
				c-0.4-0.5-0.6-1.1-0.6-1.8c0-0.6,0.2-1.2,0.5-1.6c0.3-0.4,0.7-0.7,1.2-0.7c0.2,0,0.4,0,0.8,0.1C224.8,48.7,225,48.7,225.1,48.7z
				 M233.2,34.2c-0.7,0-1.2,0.1-1.4,0.4c-0.2,0.2-0.4,0.7-0.4,1.4V47c0,0.7,0.1,1.2,0.4,1.5c0.2,0.3,0.7,0.4,1.4,0.4
				c1.1,0,2.2-0.5,3.1-1.6c1.1-1.2,1.6-3,1.6-5.5c0-2.7-0.5-4.7-1.6-6c-0.5-0.6-1-1-1.6-1.3C234.3,34.3,233.8,34.2,233.2,34.2z"/>
				<path style="fill:#0054A6;" d="M234.3,53.3c-0.7,0-1.3,0-1.8-0.1l-2.3-0.2c-0.5,0-1.1-0.1-1.7-0.1c-0.8,0-1.5,0-2.1,0.1l-1.2,0.1
				c-0.5,0.1-0.8,0.1-0.9,0.1c-0.7,0-1.2-0.2-1.7-0.7c-0.4-0.5-0.6-1.1-0.6-1.9c0-0.7,0.2-1.2,0.5-1.7c0.3-0.5,0.8-0.7,1.2-0.7
				c0.2,0,0.5,0,0.8,0.1c0.3,0.1,0.6,0.1,0.7,0.1c0.5,0,0.8-0.8,0.8-2.3v-9.6c0-1.5-0.3-2.3-0.8-2.3c-0.2,0-0.4,0-0.7,0.1
				c-0.3,0.1-0.6,0.1-0.8,0.1c-0.5,0-0.9-0.2-1.2-0.7c-0.3-0.4-0.5-1-0.5-1.7c0-0.8,0.2-1.4,0.6-1.9c0.4-0.5,1-0.7,1.7-0.7
				c0.4,0,1.1,0.1,2.2,0.2c0.7,0.1,1.4,0.1,2.1,0.1c0.2,0,0.8,0,1.7-0.1l2.3-0.2c0.6,0,1.2-0.1,1.8-0.1c3.8,0,6.5,1.8,8.1,5.3
				c0.9,2,1.4,4.2,1.4,6.5c0,2.3-0.4,4.4-1.3,6.3c-0.9,1.9-2.1,3.4-3.5,4.3C237.7,52.9,236.1,53.3,234.3,53.3z M228.5,52.9
				c0.7,0,1.3,0,1.8,0.1l2.3,0.2c0.5,0,1.1,0.1,1.8,0.1c1.8,0,3.3-0.4,4.6-1.2c1.4-0.9,2.6-2.3,3.5-4.2c0.9-1.9,1.3-4,1.3-6.3
				c0-2.3-0.5-4.4-1.4-6.4c-1.6-3.5-4.3-5.3-8-5.3c-0.6,0-1.2,0-1.8,0.1l-2.3,0.2c-0.9,0.1-1.5,0.1-1.7,0.1c-0.7,0-1.4,0-2.1-0.1
				c-1.1-0.1-1.8-0.2-2.2-0.2c-0.6,0-1.2,0.2-1.6,0.7c-0.4,0.5-0.6,1.1-0.6,1.8c0,0.6,0.2,1.2,0.5,1.6c0.3,0.4,0.7,0.6,1.2,0.6
				c0.2,0,0.4,0,0.7-0.1c0.3-0.1,0.6-0.1,0.7-0.1c0.6,0,0.9,0.8,0.9,2.4v9.6c0,1.6-0.3,2.4-0.9,2.4c-0.2,0-0.4,0-0.7-0.1
				c-0.3-0.1-0.6-0.1-0.8-0.1c-0.5,0-0.8,0.2-1.2,0.6c-0.3,0.4-0.5,1-0.5,1.6c0,0.7,0.2,1.4,0.6,1.8c0.4,0.4,0.9,0.7,1.6,0.7
				c0.1,0,0.5,0,0.9-0.1l1.2-0.1C226.9,52.9,227.6,52.9,228.5,52.9z M233.2,48.9c-0.7,0-1.2-0.1-1.5-0.4c-0.3-0.3-0.4-0.8-0.4-1.5
				V36.1c0-0.7,0.1-1.2,0.4-1.5c0.3-0.3,0.7-0.4,1.5-0.4c0.5,0,1.1,0.1,1.6,0.3c0.6,0.3,1.1,0.7,1.6,1.3c1.1,1.3,1.6,3.3,1.6,6
				c0,2.4-0.5,4.3-1.6,5.5C235.5,48.4,234.4,48.9,233.2,48.9z M233.2,34.3c-0.7,0-1.2,0.1-1.4,0.3c-0.2,0.2-0.3,0.7-0.3,1.4V47
				c0,0.7,0.1,1.2,0.3,1.4c0.2,0.2,0.7,0.4,1.4,0.4c1.1,0,2.1-0.5,3-1.5c1-1.2,1.6-3,1.6-5.4c0-2.7-0.5-4.7-1.6-6
				c-0.5-0.6-1-1-1.5-1.2C234.3,34.4,233.8,34.3,233.2,34.3z"/>
			</g>
			<g>
				<path style="fill:#0054A6;" d="M254.5,34.2c-0.7,0-1.1,0.1-1.4,0.2c-0.3,0.2-0.5,0.7-0.5,1.4v1.9c0,0.4,0,0.7,0.1,0.9
				c0.1,0.2,0.3,0.3,0.7,0.3c0.9,0,1.4-0.4,1.4-1.1v-0.5c0-0.1,0-0.3,0-0.5c0-1,0.5-1.5,1.5-1.5c1.1,0,1.6,0.6,1.6,1.8
				c0,0.3,0,0.7-0.1,1.1c-0.1,0.8-0.1,1.5-0.1,2.1c0,0.6,0,1.4,0.1,2.3c0.1,0.9,0.1,1.6,0.1,1.9c0,1.4-0.6,2-1.7,2
				c-1,0-1.6-0.6-1.6-1.8v-0.2c0-0.1,0-0.4,0.1-0.8c0-0.6-0.4-0.8-1.3-0.8c-0.6,0-0.9,0.4-0.9,1.1v2.6c0,0.8,0.1,1.4,0.4,1.7
				c0.3,0.3,0.7,0.4,1.4,0.4h1.8c1.3,0,2.3-0.1,2.8-0.4c0.5-0.3,0.8-0.7,0.8-1.4c0-0.3,0-0.7-0.1-1.2c-0.1-0.5-0.1-0.8-0.1-1.1
				c0-0.9,0.2-1.5,0.7-2c0.4-0.5,1-0.7,1.8-0.7c1.5,0,2.3,0.9,2.3,2.8c0,0.6,0,1.2-0.1,1.9c-0.1,1.1-0.2,1.8-0.2,2.1
				c0,0.3,0.1,0.8,0.2,1.5c0.1,0.4,0.1,0.9,0.1,1.4c0,1.1-0.6,1.6-1.8,1.6c-0.4,0-1,0-2-0.1c-1.5-0.1-3.9-0.2-7.3-0.2h-2.8
				c-1,0-1.9,0-2.6,0.1l-2.4,0.2c0,0-0.1,0-0.1,0c-0.1,0-0.1,0-0.2,0c-0.6,0-1.2-0.2-1.6-0.7c-0.4-0.5-0.6-1.1-0.6-1.8
				c0-0.6,0.2-1.2,0.5-1.6c0.3-0.4,0.7-0.7,1.2-0.7c0.2,0,0.4,0,0.7,0.1c0.3,0.1,0.6,0.1,0.7,0.1c0.6,0,0.8-0.8,0.8-2.4v-9.6
				c0-1.6-0.3-2.3-0.8-2.3c-0.1,0-0.4,0-0.7,0.1c-0.3,0.1-0.5,0.1-0.7,0.1c-0.5,0-0.9-0.2-1.2-0.7c-0.3-0.4-0.5-1-0.5-1.6
				c0-1.7,0.8-2.5,2.3-2.5c0.4,0,1.1,0,2.2,0.1c1.6,0.1,3.2,0.2,4.7,0.2c0.1,0,1.4,0,3.7-0.1c1.7,0,2.8-0.1,3.4-0.1
				c0.9-0.1,1.8-0.1,2.8-0.1c1.2,0,1.7,0.6,1.7,1.7c0,0.4,0,0.9-0.1,1.6c-0.1,0.7-0.1,1.3-0.1,1.6c0,0.4,0,0.9,0.1,1.6
				c0.1,0.7,0.1,1.2,0.1,1.5c0,0.7-0.2,1.2-0.7,1.7c-0.4,0.5-1,0.7-1.7,0.7c-1.6,0-2.3-0.9-2.3-2.7c0-0.3,0-0.7,0.1-1.3
				c0.1-0.5,0.1-0.9,0.1-1.2c0-0.5-0.2-0.8-0.7-0.9c-0.2,0-0.6-0.1-1.3-0.1H254.5z"/>
				<path style="fill:#0054A6;" d="M245.5,53.4h-0.2c-0.7,0-1.2-0.3-1.6-0.8c-0.4-0.5-0.6-1.1-0.6-1.9c0-0.7,0.2-1.2,0.5-1.7
				c0.3-0.5,0.8-0.7,1.3-0.7c0.2,0,0.4,0,0.8,0.1c0.3,0.1,0.6,0.1,0.7,0.1c0.5,0,0.8-0.8,0.8-2.3v-9.6c0-1.5-0.3-2.3-0.8-2.3
				c-0.1,0-0.4,0-0.7,0.1c-0.3,0.1-0.5,0.1-0.7,0.1c-0.5,0-0.9-0.2-1.3-0.7c-0.3-0.4-0.5-1-0.5-1.7c0-1.7,0.8-2.6,2.3-2.6
				c0.4,0,1.1,0,2.2,0.1c1.6,0.1,3.2,0.2,4.7,0.2c0.1,0,1.3,0,3.7-0.1c1.7,0,2.8-0.1,3.4-0.1c0.9-0.1,1.8-0.1,2.8-0.1
				c1.2,0,1.8,0.6,1.8,1.8c0,0.4,0,0.9-0.1,1.6c-0.1,0.7-0.1,1.3-0.1,1.6c0,0.4,0,0.9,0.1,1.6c0.1,0.7,0.1,1.2,0.1,1.6
				c0,0.7-0.2,1.3-0.7,1.7c-0.5,0.5-1,0.7-1.7,0.7c-1.6,0-2.4-0.9-2.4-2.7c0-0.3,0-0.7,0.1-1.3c0.1-0.5,0.1-0.9,0.1-1.2
				c0-0.5-0.2-0.8-0.7-0.9c-0.2,0-0.6-0.1-1.3-0.1h-3.1c-0.7,0-1.1,0.1-1.3,0.2c-0.3,0.2-0.4,0.6-0.4,1.3v1.9c0,0.4,0,0.7,0.1,0.9
				c0.1,0.2,0.3,0.3,0.7,0.3c0.9,0,1.3-0.3,1.3-1.1v-0.5c0-0.1,0-0.3,0-0.5c0-1,0.5-1.5,1.6-1.5c1.1,0,1.6,0.6,1.6,1.8
				c0,0.3,0,0.7-0.1,1.1c-0.1,0.8-0.1,1.5-0.1,2.1c0,0.6,0,1.4,0.1,2.3c0.1,0.9,0.1,1.6,0.1,2c0,1.4-0.6,2.1-1.7,2.1
				c-1.1,0-1.6-0.6-1.6-1.8v-0.2c0-0.1,0-0.4,0.1-0.8c0-0.5-0.4-0.8-1.3-0.8c-0.6,0-0.8,0.3-0.8,1.1v2.6c0,0.8,0.1,1.3,0.4,1.6
				c0.2,0.3,0.7,0.4,1.4,0.4h1.8c1.3,0,2.2-0.1,2.8-0.4c0.5-0.2,0.8-0.7,0.8-1.3c0-0.3,0-0.7-0.1-1.2c-0.1-0.4-0.1-0.8-0.1-1.1
				c0-0.9,0.2-1.6,0.7-2.1c0.4-0.5,1.1-0.7,1.8-0.7c1.5,0,2.3,1,2.3,2.8c0,0.6,0,1.2-0.1,1.9c-0.1,1.1-0.2,1.8-0.2,2.1
				c0,0.3,0.1,0.8,0.2,1.5c0.1,0.4,0.1,0.9,0.1,1.4c0,1.1-0.6,1.7-1.9,1.7c-0.4,0-1.1,0-2-0.1c-1.5-0.1-3.9-0.2-7.3-0.2h-2.8
				c-1,0-1.9,0-2.6,0.1l-2.4,0.2C245.6,53.3,245.6,53.3,245.5,53.4L245.5,53.4z M244.9,48.5c-0.5,0-0.9,0.2-1.2,0.6
				c-0.3,0.4-0.5,1-0.5,1.6c0,0.7,0.2,1.3,0.6,1.8c0.4,0.5,0.9,0.7,1.5,0.7h0.1c0.1,0,0.1,0,0.1,0L248,53c0.7-0.1,1.6-0.1,2.6-0.1
				h2.8c3.3,0,5.8,0.1,7.3,0.2c0.9,0.1,1.6,0.1,2,0.1c1.2,0,1.8-0.5,1.8-1.6c0-0.5,0-0.9-0.1-1.3c-0.1-0.7-0.2-1.2-0.2-1.5
				c0-0.3,0.1-1,0.2-2.1c0.1-0.7,0.1-1.3,0.1-1.9c0-1.8-0.7-2.7-2.2-2.7c-0.7,0-1.3,0.2-1.7,0.7c-0.4,0.5-0.6,1.1-0.6,2
				c0,0.3,0,0.7,0.1,1.1c0.1,0.5,0.1,0.8,0.1,1.2c0,0.7-0.3,1.1-0.8,1.4c-0.5,0.3-1.5,0.4-2.8,0.4h-1.8c-0.7,0-1.2-0.2-1.5-0.5
				c-0.3-0.3-0.4-0.9-0.4-1.7v-2.6c0-0.8,0.3-1.2,1-1.2c0.9,0,1.4,0.3,1.4,0.9c0,0.4-0.1,0.7-0.1,0.8v0.2c0,1.2,0.5,1.7,1.5,1.7
				c1.1,0,1.6-0.7,1.6-2c0-0.4,0-1-0.1-1.9c-0.1-0.9-0.1-1.7-0.1-2.3c0-0.7,0-1.4,0.1-2.1c0-0.4,0.1-0.7,0.1-1.1
				c0-1.2-0.5-1.7-1.5-1.7c-1,0-1.5,0.5-1.5,1.4c0,0.2,0,0.4,0,0.5l0,0.5c0,0.8-0.5,1.2-1.4,1.2c-0.4,0-0.7-0.1-0.8-0.3
				c-0.1-0.2-0.1-0.5-0.1-0.9v-1.9c0-0.7,0.2-1.2,0.5-1.4c0.2-0.1,0.7-0.2,1.4-0.2h3.1c0.7,0,1.2,0,1.3,0.1c0.5,0.1,0.8,0.5,0.8,1
				c0,0.3,0,0.7-0.1,1.2c-0.1,0.5-0.1,0.9-0.1,1.2c0,1.8,0.7,2.6,2.3,2.6c0.6,0,1.2-0.2,1.6-0.7c0.4-0.5,0.7-1,0.7-1.7
				c0-0.3,0-0.9-0.1-1.5c-0.1-0.7-0.1-1.2-0.1-1.6c0-0.4,0-0.9,0.1-1.6c0.1-0.7,0.1-1.3,0.1-1.6c0-1.1-0.6-1.6-1.7-1.6
				c-1,0-1.9,0-2.8,0.1c-0.5,0-1.6,0.1-3.4,0.1c-2.5,0.1-3.6,0.1-3.7,0.1c-1.5,0-3.1-0.1-4.7-0.2c-1.1-0.1-1.8-0.1-2.1-0.1
				c-1.5,0-2.2,0.8-2.2,2.5c0,0.6,0.2,1.2,0.5,1.6c0.3,0.4,0.7,0.6,1.2,0.6c0.2,0,0.4,0,0.7-0.1c0.4-0.1,0.6-0.1,0.8-0.1
				c0.6,0,0.9,0.8,0.9,2.4v9.6c0,1.6-0.3,2.4-0.9,2.4c-0.2,0-0.4,0-0.7-0.1C245.3,48.6,245,48.5,244.9,48.5z"/>
			</g>
			<g>
				<path style="fill:#0054A6;" d="M284.3,39.8c-0.6,0.5-1.5,0.9-2.8,1.2c1.5,0.3,2.6,0.8,3.2,1.5c0.6,0.7,0.9,1.8,0.9,3.1
				c0,0.4,0,0.8,0,1.2v0.4c0,1,0.2,1.4,0.7,1.4c0.1,0,0.3,0,0.6-0.1s0.5-0.1,0.6-0.1c0.5,0,0.8,0.2,1.1,0.6c0.3,0.4,0.4,1,0.4,1.7
				c0,0.8-0.2,1.4-0.6,1.8c-0.4,0.5-0.9,0.7-1.6,0.7c-0.2,0-0.6,0-1.1-0.1c-0.5-0.1-0.8-0.1-1.1-0.1c-0.2,0-0.6,0-1.1,0.1
				c-0.5,0.1-0.9,0.1-1.1,0.1c-0.8,0-1.4-0.4-1.9-1.1c-0.5-0.7-0.7-1.6-0.7-2.8c0-0.1,0-0.2,0-0.2l0.1-2v-0.2c0-1.2-0.3-2-0.8-2.5
				c-0.6-0.5-1.5-0.7-3-0.7c-0.6,0-0.9,0.2-1.1,0.5c-0.1,0.2-0.2,0.7-0.2,1.3v0.8c0,1.6,0.3,2.4,0.8,2.4c0.1,0,0.4,0,0.7-0.1
				c0.3-0.1,0.5-0.1,0.7-0.1c0.4,0,0.8,0.2,1.1,0.7c0.3,0.4,0.5,1,0.5,1.6c0,1.7-0.7,2.5-2.2,2.5c-0.5,0-1.2-0.1-2-0.2
				c-0.9-0.1-1.6-0.2-2.2-0.2c-0.7,0-1.4,0.1-2.3,0.2c-0.9,0.1-1.6,0.2-2.2,0.2c-1.5,0-2.3-0.8-2.3-2.5c0-0.6,0.2-1.2,0.5-1.6
				c0.3-0.4,0.7-0.7,1.2-0.7c0.2,0,0.4,0,0.8,0.1c0.3,0.1,0.6,0.1,0.7,0.1c0.6,0,0.8-0.8,0.8-2.4v-9.6c0-0.7,0-1.2-0.1-1.4
				c-0.1-0.6-0.4-0.9-0.8-0.9c-0.2,0-0.4,0-0.7,0.1c-0.3,0.1-0.6,0.1-0.8,0.1c-0.5,0-0.9-0.2-1.2-0.7c-0.3-0.4-0.5-1-0.5-1.6
				c0-0.7,0.2-1.4,0.6-1.8c0.4-0.5,0.9-0.7,1.6-0.7c0.1,0,0.2,0,0.3,0l2.2,0.2c0.6,0.1,1.3,0.1,2,0.1c1.2,0,2.8-0.1,4.6-0.2
				c1.2-0.1,2.2-0.1,2.8-0.1c2,0,3.5,0.6,4.7,1.7c1.2,1.1,1.7,2.6,1.7,4.5C285.9,37.7,285.4,39,284.3,39.8z M277.2,34.4
				c-0.8,0-1.4,0.1-1.6,0.2c-0.5,0.2-0.7,0.7-0.7,1.5v2.1c0,0.5,0.1,0.9,0.2,1s0.5,0.2,0.9,0.2c2.7,0,4.1-0.9,4.1-2.7
				C280.1,35.2,279.1,34.4,277.2,34.4z"/>
				<path style="fill:#0054A6;" d="M286.8,53.3c-0.2,0-0.6,0-1.1-0.1c-0.5-0.1-0.8-0.1-1.1-0.1c-0.2,0-0.6,0-1.1,0.1
				c-0.5,0.1-0.9,0.1-1.1,0.1c-0.8,0-1.4-0.4-1.9-1.1c-0.5-0.7-0.7-1.7-0.7-2.8c0-0.1,0-0.2,0-0.3l0.1-2v-0.2c0-1.2-0.3-2-0.8-2.5
				c-0.5-0.5-1.5-0.7-2.9-0.7c-0.6,0-0.9,0.2-1,0.5c-0.1,0.2-0.2,0.6-0.2,1.3v0.8c0,1.5,0.2,2.3,0.7,2.3c0.1,0,0.4,0,0.7-0.1
				c0.3-0.1,0.5-0.1,0.7-0.1c0.5,0,0.8,0.2,1.2,0.7c0.3,0.4,0.5,1,0.5,1.7c0,1.7-0.8,2.6-2.2,2.6c-0.5,0-1.2-0.1-2-0.2
				c-0.8-0.1-1.6-0.2-2.2-0.2c-0.7,0-1.4,0.1-2.3,0.2c-0.9,0.1-1.6,0.2-2.2,0.2c-1.5,0-2.3-0.9-2.3-2.6c0-0.7,0.2-1.2,0.5-1.7
				c0.3-0.5,0.8-0.7,1.2-0.7c0.2,0,0.5,0,0.8,0.1c0.3,0.1,0.6,0.1,0.7,0.1c0.5,0,0.8-0.8,0.8-2.3v-9.6c0-0.7,0-1.2-0.1-1.4
				c-0.1-0.6-0.3-0.9-0.7-0.9c-0.2,0-0.4,0-0.7,0.1c-0.3,0.1-0.6,0.1-0.8,0.1c-0.5,0-0.9-0.2-1.2-0.7c-0.3-0.4-0.5-1-0.5-1.7
				c0-0.8,0.2-1.4,0.6-1.9c0.4-0.5,1-0.8,1.6-0.8c0.1,0,0.2,0,0.3,0l2.2,0.2c0.6,0.1,1.3,0.1,2,0.1c1.2,0,2.8-0.1,4.6-0.2
				c1.3-0.1,2.2-0.1,2.8-0.1c2,0,3.6,0.6,4.7,1.7c1.2,1.1,1.7,2.6,1.7,4.5c0,1.7-0.6,3-1.6,3.9c-0.6,0.4-1.4,0.8-2.6,1.1
				c1.4,0.3,2.4,0.8,3,1.4c0.6,0.7,0.9,1.8,0.9,3.2c0,0.4,0,0.8,0,1.2v0.4c0,0.9,0.2,1.4,0.7,1.4c0.1,0,0.3,0,0.6-0.1
				c0.3-0.1,0.5-0.1,0.6-0.1c0.5,0,0.9,0.2,1.2,0.7c0.3,0.4,0.4,1,0.4,1.7c0,0.8-0.2,1.4-0.6,1.9C288,53.1,287.4,53.3,286.8,53.3z
				 M284.6,53.1c0.2,0,0.6,0,1.1,0.1c0.5,0.1,0.8,0.1,1.1,0.1c0.6,0,1.2-0.2,1.6-0.7c0.4-0.4,0.6-1,0.6-1.8c0-0.7-0.1-1.2-0.4-1.7
				c-0.3-0.4-0.6-0.6-1.1-0.6c-0.1,0-0.3,0-0.6,0.1c-0.3,0.1-0.5,0.1-0.6,0.1c-0.5,0-0.8-0.5-0.8-1.5v-0.4c0-0.4,0-0.8,0-1.2
				c0-1.4-0.3-2.4-0.9-3.1c-0.6-0.7-1.7-1.2-3.1-1.5l-0.3,0l0.3-0.1c1.3-0.3,2.2-0.7,2.8-1.2l0,0c1.1-0.8,1.6-2.1,1.6-3.8
				c0-1.9-0.6-3.4-1.7-4.5c-1.1-1.1-2.7-1.6-4.7-1.6c-0.6,0-1.5,0-2.8,0.1c-1.9,0.1-3.4,0.2-4.6,0.2c-0.7,0-1.4,0-2-0.1l-2.2-0.2
				c-0.1,0-0.2,0-0.3,0c-0.6,0-1.1,0.2-1.5,0.7c-0.4,0.5-0.6,1.1-0.6,1.8c0,0.6,0.2,1.2,0.5,1.6c0.3,0.4,0.7,0.6,1.2,0.6
				c0.2,0,0.4,0,0.7-0.1c0.3-0.1,0.6-0.1,0.7-0.1c0.4,0,0.7,0.3,0.8,1c0,0.2,0.1,0.7,0.1,1.4v9.6c0,1.6-0.3,2.4-0.9,2.4
				c-0.2,0-0.4,0-0.7-0.1c-0.3-0.1-0.6-0.1-0.8-0.1c-0.5,0-0.8,0.2-1.2,0.6c-0.3,0.4-0.5,1-0.5,1.6c0,1.7,0.7,2.5,2.2,2.5
				c0.6,0,1.3-0.1,2.2-0.2c0.9-0.1,1.6-0.2,2.3-0.2c0.6,0,1.4,0.1,2.2,0.2c0.8,0.1,1.5,0.2,2,0.2c1.4,0,2.1-0.8,2.1-2.5
				c0-0.6-0.1-1.2-0.4-1.6c-0.3-0.4-0.6-0.6-1.1-0.6c-0.2,0-0.4,0-0.7,0.1c-0.3,0.1-0.5,0.1-0.7,0.1c-0.6,0-0.8-0.8-0.8-2.4v-0.8
				c0-0.6,0.1-1.1,0.2-1.3c0.2-0.4,0.5-0.6,1.1-0.6c1.4,0,2.5,0.2,3,0.7c0.6,0.5,0.8,1.3,0.8,2.5v0.2l-0.1,2c0,0,0,0.1,0,0.2
				c0,1.1,0.2,2.1,0.7,2.8c0.5,0.7,1.1,1,1.8,1c0.2,0,0.6,0,1.1-0.1C284,53.1,284.4,53.1,284.6,53.1z M276,39.5
				c-0.5,0-0.8-0.1-0.9-0.3c-0.2-0.2-0.3-0.5-0.3-1.1v-2.1c0-0.8,0.2-1.3,0.7-1.5c0.3-0.1,0.8-0.2,1.6-0.2c1.9,0,2.9,0.8,2.9,2.4
				C280.1,38.6,278.8,39.5,276,39.5z M277.2,34.5c-0.8,0-1.4,0.1-1.6,0.2c-0.4,0.2-0.7,0.7-0.7,1.4v2.1c0,0.5,0.1,0.9,0.2,1
				c0.1,0.1,0.4,0.2,0.8,0.2c2.7,0,4-0.9,4-2.6C280,35.2,279.1,34.5,277.2,34.5z"/>
			</g>
		</g>
		<path style="fill:#FFFFFF;" d="M140.6,51.5c0,0-7-18,3.2-26.4c7.9-6.6,23.3-3,23.3-3l4.4,2.9c0,0-0.4-7.4-3.2-9.2s-17.6-5.2-20-8.1
		s-4.7-8.1-13.8-5.6s-10.1,0.7-13.8,4.4c-3.7,3.7-7.2,8-7.2,8l0,5.3l-5.8,12l0.2,3.3l-2.7,6l-7,7.9c0,0,3.1,2.7,9,1.5
		c5.9-1.3,8.5-3,8.5-3l-3.3,5.9c0,0,4.6,0.9,6.7-1c2.2-1.8,5.4-3.9,5.4-3.9s1,3.4,3.4,5.1c2.3,1.7,7.6,3.6,7.6,3.6l-2.6-6.4l8.2,3.9
		L140.6,51.5z"/>
		<path style="fill:#BD2133;" d="M169.3,15c-0.3-0.4-0.7-0.7-1.1-1c-4-2.5-7.6-3.1-11-3.7c-0.7-0.1-1.5-0.3-2.3-0.5
		c-0.5-0.4-1.6-1.1-3.1-2.5c-0.6-0.5-1.1-1-1.5-1.4c-0.3-1.9-2-4.2-8-5.5c-9-1.9-18.2,1-24,4.4C112.4,8.4,107,16.9,107,16.9l4.8,1.1
		c0,0-3.9,3.9-5.6,7.2c-2.7,5.3-3.4,8.7-3.4,8.7l3.8-0.2c0,0-0.9,4.4-3.5,8.5c-2.6,4-10,8-10,8s5.4,1.2,9.4,1.4
		c4.7,0.3,8.8-0.8,8.8-0.8s-0.8,1.3-1.5,1.9c-0.7,0.6-1.9,1.5-1.9,1.5s4.8,1.6,8.4,0.8c3.6-0.8,6.1-3,6.1-3s7.8,8.9,14.1,10.4
		c4.3,1,8.6-0.6,8.6-0.6s-6.4-2.4-7.9-3.6c-1.5-1.2-1.9-2.4-1.9-2.4s4.5,1.6,7.2,2c6,0.9,11.6,0.7,11.6,0.7s-19.1-10.2-13-25.1
		c2.4-5.9,6.4-7.5,10.6-9c2.1-0.7,8.6-0.6,12.1,0.4c3.5,1,4.9,1.3,7.4,3.8C174,31.5,174.5,19.6,169.3,15z M168.9,22.7
		c-1.1-1.1-3.2-1.5-4.8-1.8c-2.2-0.5-7.4-0.6-9.4-0.5c-7.3,0.3-13.8,3.8-16.8,10.4c-5.7,13,4.6,23.6,4.6,23.6s-5.3-0.9-9.7-4.6
		c-2.3-1.9-4-4.8-4-4.8s-0.3,2.1-0.1,3.6c0.2,1.6,0.5,3.1,0.5,3.1s-2.5-2.3-3.8-4.5c-1.1-2-1.5-4.6-1.5-4.6s-1.5,3.7-3.4,5.8
		c-2.4,2.6-6.6,3.7-6.6,3.7s1.7-2.3,2.6-4.2c1.3-2.6,1.5-4.9,1.5-4.9s-2.5,1.4-7,3.6c-5,2.6-12.5,2.7-12.5,2.7s3.8-2.3,7.3-6.6
		c3.5-4.3,6.4-12.7,6.4-12.7l-3.7,0.1c0,0,2.5-5.1,5.1-8.3c3-3.7,6.9-6.9,6.9-6.9s-0.6-0.5-1.9-0.9c-1.3-0.4-3.5-0.7-3.5-0.7
		s7.4-10.4,23.8-9.5c2.4,0.1,5.5,1,7.1,1.9c0.8,0.5,2.2,2.5,2.2,2.5c0,0,0,0,0,0s0.2,0.3,0.7,0.7l0,0l0,0c1.2,1.3,4,3.8,7.1,4.6
		c4.4,1.2,9.1,2.5,11.3,4.3c2.2,1.8,2.9,4.4,3.1,5.3C170.6,23.7,170.1,23.9,168.9,22.7z"/>
		<path style="fill:#BD2133;" d="M109.9,41.6c0,0,4.5-1.9,6.4-4c1.9-2.1,3.4-8.1,3.4-8.1s-4.2,6.4-5.6,8S109.9,41.6,109.9,41.6z"/>
		<path style="fill:#BD2133;" d="M125.1,20.8c0,0-5.1,0.5-7.7,2.2c-4,2.6-4.6,6.1-4.6,6.1s3.3-3.4,5.3-4.6S125.1,20.8,125.1,20.8z"/>
		<path style="fill:#BD2133;" d="M142.5,9.4c-2.1-0.5-3.4-1-6.8-1.2c-2.7-0.2-6.7,2.5-6.7,2.5c3.3-0.9,6.1,0.3,6.1,0.3
		s0.2,1.4,1.9,2.7c1.2,0.9,2,1.2,2,1.2s-1,0.4-3.1,0.6c-1.4,0.1-3,0.2-3.7,0c0,0,7.7,2.4,11.5-0.5c2.4-1.8,2.7-5.2,2.7-5.2
		S145.1,10.1,142.5,9.4z M139.9,15.4c-0.1,0-0.3,0.1-0.6,0.1L139.9,15.4z M141.4,14.1c-2.8-0.2-5-3.6-5-3.6s2.3,0.4,3.9,0.6
		c-0.1,0.1-0.2,0.3-0.2,0.4c-0.1,0.5,0.4,1,1,1.1c0.6,0.1,1.2-0.3,1.2-0.8c0-0.2,0-0.3-0.1-0.5c1,0.1,2,0.1,2,0.1
		S144.3,14.3,141.4,14.1z"/>
		<path style="fill:#BD2133;" d="M154.1,58.6c0.1,0,0.2,0,0.2,0l144,0c0.9,0,1.7-0.7,1.7-1.7c0-0.9-0.7-1.7-1.7-1.7h-144
		c-0.2,0-9.3,0.1-12.3-7.2c-0.3-0.8-1.3-1.2-2.2-0.9c-0.8,0.3-0.9,1.3-0.5,2.2c1,2.5,2.2,4.3,3.8,5.7
		C147.5,58.4,152.9,58.6,154.1,58.6z"/>
		<path style="fill:#BD2133;" d="M158.4,66.5c0.5,0,0.8,0,0.9,0l129.8,0c1.1,0,2.1-0.9,2.1-2.1c0-1.1-0.9-2.1-2.1-2.1H159.3
		c-5.4,0.1-20.2-0.7-24.9-5.9c-0.8-0.8-2.1-0.9-2.9-0.2c-0.8,0.8-0.9,2.1-0.2,2.9C137.5,66,154.3,66.5,158.4,66.5z"/>
		<path style="fill:#BD2133;" d="M134,30.7c0,0-3.2,1.4-4.4,4.4c-0.8,2-0.8,6-0.8,6s0.9-2.7,1.5-4.2C131.1,35.5,134,30.7,134,30.7z" />
	</g>
</svg>