<svg version="1.1" id="Layer_1"
	xmlns="http://www.w3.org/2000/svg"
	xmlns:xlink="http://www.w3.org/1999/xlink" x="0px" y="0px" viewBox="0 0 600 188" style="enable-background:new 0 0 600 188;" xml:space="preserve">
	<g>
		<polygon style="fill:#FFFFFF;" points="371.7,55.1 371.2,55.1 371.7,7.7 294.3,24.6 216.9,7.7 217.4,55.1 216.9,55.1 211.6,55.1 
		0,55.1 0,105.7 212,105.7 212,105.7 217.8,105.7 218,123.5 294.3,180.1 294.3,180.1 370.5,123.5 370.7,105.7 371.7,105.7 
		376.5,105.7 600,105.7 600,55.1 377,55.1 	"/>
		<g id="outline">
			<polygon style="fill:#0D356D;" points="376.5,105.7 371.7,105.7 370.7,105.7 370.5,123.5 294.3,180.1 294.3,180.1 218,123.5 
			217.8,105.7 212,105.7 212,105.7 0,105.7 0,111.6 212.1,111.6 212.3,126.2 294.3,187.7 294.3,187.7 376.3,126.2 376.5,111.6 
			600,111.6 600,105.7 		"/>
			<polygon style="fill:#0D356D;" points="377,49.1 377.6,0 294.3,18.6 211,0 211.5,49.1 0,49.1 0,55.1 211.6,55.1 216.9,55.1 
			217.4,55.1 216.9,7.7 294.3,24.6 371.7,7.7 371.2,55.1 371.7,55.1 377,55.1 600,55.1 600,49.1 		"/>
		</g>
		<g id="sheild">
			<g id="right">
				<polygon style="fill-rule:evenodd;clip-rule:evenodd;fill:#E61E26;" points="361.2,55.1 361.5,20.9 294.3,35 294.3,55.1 			"/>
				<polygon style="fill-rule:evenodd;clip-rule:evenodd;fill:#E61E26;" points="294.3,166.9 360.6,118.8 360.7,105.7 294.3,105.7 
							"/>
			</g>
			<g id="left">
				<polygon style="fill:#0D356D;" points="294.5,55.1 294.5,34.8 226.8,20.6 227.2,55.1 			"/>
				<polygon style="fill:#0D356D;" points="227.7,105.7 227.7,105.7 227.8,118.9 227.9,119 294.5,167.3 294.5,105.7 227.7,105.7 			
				"/>
			</g>
		</g>
		<g id="text">
			<g id="honor">
				<path style="fill:#0D356D;" d="M349.1,61.6v13.5h24.3V61.6h11.3v37.6h-11.3V85.6h-24.3v13.6h-11.3V61.6H349.1z"/>
				<path style="fill:#0D356D;" d="M435.1,63.6c2.7,2.2,3.5,6,3.5,16.7c0,10.8-0.8,14.5-3.5,16.8c-2.7,2.1-6.1,2.6-20.7,2.6
				c-14.7,0-18.2-0.5-20.9-2.6c-2.7-2.3-3.5-6-3.5-17c0-10.4,0.8-14.3,3.5-16.5c2.7-2.1,6.1-2.6,20.8-2.6S432.4,61.5,435.1,63.6z
				 M401.8,73c-0.7,1.4-1,3.4-1,8.4c0,4.7,0.3,6.2,1.6,7.3c1.4,1.1,3.3,1.4,12,1.4c8.5,0,10.4-0.2,11.8-1.4c1.2-1,1.6-2.7,1.6-7.2
				c0-5.4-0.3-7.6-1.2-8.9c-1.1-1.6-2.4-1.8-12.3-1.8C403.9,70.8,402.8,71,401.8,73z"/>
				<path style="fill:#0D356D;" d="M462.8,61.6l18.5,28h1.1l-0.3-28h11v37.6h-18.7l-18.6-28h-1.2l0.3,28h-11V61.6H462.8z"/>
				<path style="fill:#0D356D;" d="M543.4,63.6c2.7,2.2,3.5,6,3.5,16.7c0,10.8-0.8,14.5-3.5,16.8c-2.7,2.1-6.1,2.6-20.7,2.6
				c-14.7,0-18.2-0.5-20.9-2.6c-2.7-2.3-3.5-6-3.5-17c0-10.4,0.8-14.3,3.5-16.5c2.7-2.1,6.1-2.6,20.8-2.6S540.7,61.5,543.4,63.6z
				 M510.1,73c-0.7,1.4-1,3.4-1,8.4c0,4.7,0.3,6.2,1.6,7.3c1.4,1.1,3.3,1.4,12,1.4c8.5,0,10.4-0.2,11.8-1.4c1.2-1,1.6-2.7,1.6-7.2
				c0-5.4-0.3-7.6-1.2-8.9c-1.1-1.6-2.4-1.8-12.3-1.8C512.2,70.8,511.1,71,510.1,73z"/>
				<path style="fill:#0D356D;" d="M552.2,61.6h26c12.2,0,12.2,0,14.5,1.5c2.7,1.7,3.5,4.3,3.5,10.8c0,5.4-0.5,7.6-2.3,9.1
				c-1.1,0.9-2.1,1.4-4.3,1.7c5.5,0.7,6.4,2.4,6.2,11v3.5h-10.6v-2c0-4.2-0.2-5.6-1.1-6.5c-0.7-0.9-1.5-1-6-1H563v9.5h-10.8V61.6z
				 M578.1,80.3c5.3-0.1,5.3-0.1,6-0.6c1-0.6,1.3-1.7,1.3-4.2c0-2.4-0.4-3.6-1.4-4.1c-0.8-0.4-0.9-0.4-5.9-0.5H563v9.2H578.1z"/>
			</g>
			<g id="with">
				<g>
					<path style="fill:#0D356D;" d="M267.3,74.9l3.6,10.2h0.8l3.1-10.2h5l3.1,10.2h0.8l3.7-10.2h4.4l-5.3,13.6h-6.4l-2.7-10l-2.7,10
					h-6.4l-5.1-13.6H267.3z"/>
					<path style="fill:#0D356D;" d="M296.7,74.9v13.6h-4.3V74.9H296.7z"/>
					<path style="fill:#0D356D;" d="M314.1,74.9v3.5h-6v10.1h-4.3V78.4h-6v-3.5H314.1z"/>
					<path style="fill:#0D356D;" d="M319.4,74.9v4.9h9.3v-4.9h4.3v13.6h-4.3v-4.9h-9.3v4.9h-4.3V74.9H319.4z"/>
				</g>
			</g>
			<g id="served">
				<path style="fill:#0D356D;" d="M13.4,86.7c0,2.3,0.2,3,1,3.6c1,0.7,2.1,0.8,9.3,0.8c7.7,0,8.9-0.1,9.9-0.5
				c0.8-0.4,1.1-1.2,1.1-2.8c0-2.3-0.8-2.8-4.1-2.9c-1.1,0-4.4-0.2-8-0.3c-3.7-0.2-7.1-0.4-8.1-0.4c-4.9-0.2-7.2-1-8.7-2.9
				c-1.3-1.7-1.9-4.1-1.9-7.9c0-5.6,1.2-9,3.5-10.4c2.6-1.6,5.5-1.9,17.6-1.9c9.4,0,12.9,0.5,15.3,2.1c2.2,1.5,3.1,3.9,3.1,8.6
				c0,0.2,0,1-0.1,1.7h-9.9c-0.1-1.9-0.2-2.4-0.8-2.9c-0.8-0.7-2-0.8-9.7-0.8c-8.6,0-9.3,0.2-9.3,3c0,1.4,0.5,2.1,1.4,2.4
				c0.9,0.3,3.5,0.5,10.9,0.7c10.8,0.3,13.1,0.7,15.2,2.1c2.5,1.6,3.4,4.2,3.4,9.6c0,6.4-1.3,9.6-4.6,11.1c-2.1,1-6.2,1.3-16.5,1.3
				c-10,0-14.2-0.5-16.6-2c-2.5-1.6-3.3-3.8-3.3-9.2v-1.8H13.4z"/>
				<path style="fill:#0D356D;" d="M84.1,61.6v8.9H57v5.5h25.7v8.3H57v6h27.2v9H47V61.6H84.1z"/>
				<path style="fill:#0D356D;" d="M87.2,61.6h24.7c11.6,0,11.6,0,13.7,1.5c2.6,1.7,3.3,4.3,3.3,10.8c0,5.4-0.5,7.6-2.2,9.1
				c-1,0.9-2,1.4-4.1,1.7c5.2,0.7,6.1,2.4,5.9,11.1v3.5h-10.1v-2c0-4.2-0.2-5.6-1-6.5c-0.7-0.9-1.5-1-5.7-1H97.4v9.5H87.2V61.6z
				 M111.8,80.3c5-0.1,5-0.1,5.7-0.6c0.9-0.6,1.2-1.7,1.2-4.2c0-2.4-0.4-3.6-1.4-4.1c-0.8-0.4-0.9-0.4-5.6-0.5H97.4v9.2H111.8z"/>
				<path style="fill:#0D356D;" d="M138.4,61.6l12.2,28.1h2l12.1-28.1h11.2l-16.4,37.6h-15.6l-16.6-37.6H138.4z"/>
				<path style="fill:#0D356D;" d="M212.6,61.6v8.9h-27v5.5h25.7v8.3h-25.7v6h27.2v9h-37.3V61.6H212.6z"/>
				<path style="fill:#0D356D;" d="M215.8,61.6h24.2c8.5,0,9.7,0.1,12.6,0.7c3.3,0.7,5.5,2.9,6.5,6.4c0.8,2.6,1,5.1,1,11.2
				c0,9.8-0.8,13.6-3.2,16.2c-2.6,2.6-5.5,3.2-16.8,3.2h-24.2V61.6z M240,89.6c9.3,0,9.9-0.6,9.9-9.1c0-4.6-0.4-6.7-1.4-7.9
				c-1.1-1.4-2.4-1.6-8.6-1.6h-14.1v18.6H240z"/>
			</g>
		</g>
	</g>
</svg>
